<svg width="50" height="45" viewBox="0 0 50 45" fill="none" xmlns="http://www.w3.org/2000/svg">
<g clip-path="url(#clip0_9_2355)">
<path d="M2.02157 10.7888L8.3275 4.62758L26.8134 23.1608L20.0254 30.0447L20.6027 30.4301L24.6467 26.6267C24.9073 26.4738 25.1814 26.3451 25.4654 26.2421C26.7451 25.7775 27.8757 25.9709 28.3054 26.0494C29.0128 26.1788 29.5065 26.4035 29.99 26.6267C29.99 26.6267 31.3787 27.2695 32.5253 28.3121C33.5978 29.2864 34.6448 30.7841 35.8633 33.7034C36.9205 36.235 37.4913 39.1121 39.458 41.7906C39.8499 42.325 40.4715 43.0892 41.512 43.4629C42.6091 43.8541 43.6438 43.6192 44.336 43.4629C45.5553 43.1866 46.3827 42.6508 46.9033 42.3076C47.9725 41.596 48.8892 40.6785 49.6 39.6087L10.4455 1.22559L1.20288 10.4682L2.02157 10.7888Z" stroke="white" stroke-width="1.2" stroke-miterlimit="10"/>
<path d="M5.78296 15.0428L12.4873 8.60815" stroke="white" stroke-width="0.7" stroke-miterlimit="10"/>
<path d="M4.50806 13.7151L11.2124 7.27979" stroke="white" stroke-width="0.7" stroke-miterlimit="10"/>
<path d="M3.16357 12.3143L9.86867 5.87891" stroke="white" stroke-width="0.7" stroke-miterlimit="10"/>
<path d="M7.12207 16.4388L13.8272 10.0042" stroke="white" stroke-width="0.7" stroke-miterlimit="10"/>
<path d="M8.32617 17.6929L15.0305 11.2583" stroke="white" stroke-width="0.7" stroke-miterlimit="10"/>
<path d="M9.646 19.0679L16.3504 12.6333" stroke="white" stroke-width="0.7" stroke-miterlimit="10"/>
<path d="M12.1423 21.6693L18.8467 15.2346" stroke="white" stroke-width="0.7" stroke-miterlimit="10"/>
<path d="M13.5337 23.1194L20.2381 16.6841" stroke="white" stroke-width="0.7" stroke-miterlimit="10"/>
<path d="M16.3657 26.0696L23.0701 19.635" stroke="white" stroke-width="0.7" stroke-miterlimit="10"/>
<path d="M15.0178 24.6658L21.7229 18.2305" stroke="white" stroke-width="0.7" stroke-miterlimit="10"/>
<path d="M10.9451 20.4227L17.6502 13.9873" stroke="white" stroke-width="0.7" stroke-miterlimit="10"/>
<path d="M17.6091 27.3653L24.3135 20.9307" stroke="white" stroke-width="0.7" stroke-miterlimit="10"/>
<path d="M18.9055 28.7164L25.6106 22.2817" stroke="white" stroke-width="0.7" stroke-miterlimit="10"/>
</g>
<defs>
<clipPath id="clip0_9_2355">
<rect width="50" height="44.3662" fill="white"/>
</clipPath>
</defs>
</svg>
