<svg width="25" height="24" viewBox="0 0 25 24" fill="none" xmlns="http://www.w3.org/2000/svg">
<path d="M24.4924 12.2459C24.5068 11.4196 24.4198 10.5947 24.2335 9.78955H12.7363V14.2484H19.4846C19.3551 15.0341 19.0666 15.7852 18.6368 16.4556C18.2071 17.126 17.6451 17.7017 16.9853 18.1475L16.9623 18.2964L20.5974 21.0597L20.8493 21.0847C22.0482 19.9536 22.9933 18.5808 23.6219 17.057C24.2504 15.5333 24.5482 13.8934 24.4954 12.2459" fill="#4285F4"/>
<path d="M12.7442 23.9951C15.7173 24.0815 18.6135 23.0421 20.8532 21.0848L16.9891 18.1475C16.0328 18.7625 14.9501 19.154 13.8217 19.2931C12.6932 19.4322 11.548 19.3152 10.4709 18.9509C9.39387 18.5865 8.41276 17.9842 7.60047 17.1886C6.78817 16.3931 6.16557 15.4247 5.77892 14.3555L5.63495 14.3675L1.8549 17.2378L1.80591 17.3727C2.84357 19.3761 4.41385 21.0544 6.34392 22.2228C8.27399 23.3912 10.488 24.0045 12.7442 23.9951Z" fill="#34A853"/>
<path d="M5.77812 14.3745C5.51086 13.6105 5.373 12.8074 5.37022 11.9981C5.37537 11.19 5.50866 10.3879 5.76512 9.62165L5.75812 9.46269L1.93008 6.54541L1.80511 6.6034C0.94663 8.27188 0.498779 10.1212 0.498779 11.9976C0.498779 13.8739 0.94663 15.7232 1.80511 17.3917L5.77812 14.3745Z" fill="#FBBC05"/>
<path d="M12.7404 4.64691C14.4896 4.61691 16.184 5.25718 17.4763 6.43646L20.9304 3.12529C18.6984 1.07807 15.7689 -0.0394731 12.7404 0.00106552C10.4848 -0.00816976 8.27044 0.605197 6.34104 1.77363C4.41164 2.94207 2.84208 4.62025 1.80518 6.62341L5.76319 9.64066C6.26154 8.18549 7.20169 6.92216 8.45248 6.02695C9.70327 5.13174 11.2023 4.64928 12.7404 4.64691Z" fill="#EB4335"/>
</svg>
