<svg width="45" height="45" viewBox="0 0 45 45" fill="none" xmlns="http://www.w3.org/2000/svg">
<circle cx="22.5" cy="22.5" r="22.5" fill="#2C2F73"/>
<path d="M31.5 27.3289V21.6622C31.5 20.6186 31.5 20.0969 31.2169 19.704C30.9881 19.3867 30.6212 19.218 29.9667 18.991C29.8328 20.5972 29.3009 22.2375 28.4655 23.6731C27.4928 25.3447 26.0484 26.8393 24.197 27.6469C23.118 28.1176 21.882 28.1176 20.803 27.6469C18.9516 26.8393 17.5072 25.3447 16.5345 23.6731C15.9009 22.5842 15.4418 21.3775 15.1986 20.1573C14.8161 20.1009 14.5225 20.1298 14.2692 20.2712C14.1681 20.3276 14.0739 20.3955 13.9884 20.4735C13.5 20.9196 13.5 21.7491 13.5 23.408V28.3377C13.5 29.3813 13.5 29.903 13.7831 30.2959C14.0663 30.6887 14.5613 30.8537 15.5513 31.1837L15.9349 31.3116L15.9349 31.3116C17.5119 31.8372 18.3004 32.1001 19.1069 32.1016C19.3498 32.1021 19.5924 32.0848 19.8328 32.05C20.631 31.9344 21.3809 31.5595 22.8806 30.8096C24.0299 30.235 24.6046 29.9477 25.215 29.8144C25.4292 29.7676 25.6463 29.7349 25.8648 29.7166C26.4875 29.6645 27.1157 29.7692 28.3721 29.9786C29.6455 30.1909 30.2821 30.297 30.747 30.03C30.9048 29.9394 31.0449 29.8207 31.1603 29.6799C31.5 29.2653 31.5 28.6198 31.5 27.3289Z" fill="white"/>
<path fill-rule="evenodd" clip-rule="evenodd" d="M22.5 12.5C19.1863 12.5 16.5 15.0521 16.5 18.2003C16.5 21.3238 18.415 24.9687 21.4028 26.2721C22.0993 26.576 22.9007 26.576 23.5972 26.2721C26.585 24.9687 28.5 21.3238 28.5 18.2003C28.5 15.0521 25.8137 12.5 22.5 12.5ZM22.5 20.5C23.6046 20.5 24.5 19.6046 24.5 18.5C24.5 17.3954 23.6046 16.5 22.5 16.5C21.3954 16.5 20.5 17.3954 20.5 18.5C20.5 19.6046 21.3954 20.5 22.5 20.5Z" fill="white"/>
</svg>
