<svg width="50" height="50" viewBox="0 0 50 50" fill="none" xmlns="http://www.w3.org/2000/svg">
<mask id="mask0_6_1930" style="mask-type:luminance" maskUnits="userSpaceOnUse" x="9" y="0" width="41" height="36">
<path d="M32.4691 6.22362e-07C31.9018 -0.000326363 31.3418 0.128198 30.8313 0.375883C30.3209 0.623568 29.8734 0.983955 29.5226 1.42983L29.3537 1.65544L29.3392 1.67715L25.3369 7.16716L18.5209 16.5123L18.5112 16.5267C17.9787 17.2379 17.2918 17.8192 16.5024 18.2268C15.7129 18.6345 14.8413 18.8579 13.9531 18.8803C13.0648 18.9028 12.1831 18.7236 11.374 18.3563C10.565 17.9889 9.84974 17.443 9.28198 16.7596L13.8115 22.9699L20.8412 32.6106L21.0354 32.8773C21.5341 33.5286 22.1742 34.0582 22.9074 34.4261C23.6406 34.7941 24.4478 34.9908 25.268 35.0013C26.0883 35.0119 26.9003 34.8361 27.6427 34.4872C28.3851 34.1383 29.0386 33.6253 29.554 32.9871L29.8689 32.5539L36.8551 22.9723L49.0948 6.18742L49.4495 5.70478C49.7944 5.13555 49.9817 4.48486 49.9923 3.81939C50.0028 3.15392 49.8363 2.49761 49.5097 1.91771C49.1831 1.3378 48.7082 0.855174 48.1336 0.519254C47.5591 0.183335 46.9055 0.00620742 46.24 0.00603948L32.4691 6.22362e-07Z" fill="white"/>
</mask>
<g mask="url(#mask0_6_1930)">
<path d="M33.9545 -19.8933L-7.82507 13.7944L25.3212 54.9024L67.1007 21.2146L33.9545 -19.8933Z" fill="url(#paint0_linear_6_1930)"/>
</g>
<mask id="mask1_6_1930" style="mask-type:luminance" maskUnits="userSpaceOnUse" x="0" y="0" width="26" height="19">
<path d="M4.42669 0C3.76198 0.000878238 3.1094 0.178068 2.53554 0.51351C1.96167 0.848951 1.48707 1.33064 1.16015 1.9094C0.833234 2.48816 0.665704 3.14328 0.674657 3.80793C0.68361 4.47258 0.868725 5.12296 1.21111 5.6927L1.57309 6.18621L8.84885 16.1684L8.87178 16.1985L9.26875 16.7463L9.27719 16.756V16.7632C9.84495 17.4467 10.5602 17.9926 11.3692 18.3599C12.1783 18.7272 13.06 18.9064 13.9483 18.884C14.8365 18.8616 15.7081 18.6381 16.4976 18.2305C17.287 17.8228 17.9739 17.2416 18.5064 16.5303L18.5161 16.5158L25.3321 7.17078L21.3226 1.66873L21.3142 1.65907L21.1694 1.4612V1.45274C20.819 1.00096 20.3696 0.635516 19.8559 0.384513C19.3422 0.133511 18.7778 0.00363132 18.206 0.00483109L4.42669 0Z" fill="white"/>
</mask>
<g mask="url(#mask1_6_1930)">
<path d="M19.5046 -10.459L-7.35901 4.4624L6.4715 29.362L33.3351 14.4406L19.5046 -10.459Z" fill="url(#paint1_linear_6_1930)"/>
</g>
<mask id="mask2_6_1930" style="mask-type:luminance" maskUnits="userSpaceOnUse" x="25" y="0" width="25" height="23">
<path d="M32.4691 6.22362e-07C31.9018 -0.000326363 31.3417 0.128198 30.8313 0.375883C30.3209 0.623568 29.8734 0.983955 29.5226 1.42983L29.3537 1.65544L29.3392 1.67715L25.3369 7.16716L36.8623 22.9735L49.102 6.18863L49.4567 5.70599C49.8016 5.13676 49.9889 4.48606 49.9995 3.8206C50.0101 3.15513 49.8435 2.49882 49.5169 1.91892C49.1903 1.33901 48.7154 0.856353 48.1408 0.520433C47.5663 0.184513 46.9127 0.00741519 46.2472 0.00724726L32.4691 6.22362e-07Z" fill="white"/>
</mask>
<g mask="url(#mask2_6_1930)">
<path d="M50.001 0H25.3383V22.9699H50.001V0Z" fill="url(#paint2_linear_6_1930)"/>
</g>
<mask id="mask3_6_1930" style="mask-type:luminance" maskUnits="userSpaceOnUse" x="19" y="36" width="12" height="14">
<path d="M19.766 41.8179V44.429C19.766 45.9065 20.3529 47.3235 21.3977 48.3682C22.4424 49.4129 23.8594 49.9998 25.3368 49.9998C26.8143 49.9998 28.2313 49.4129 29.276 48.3682C30.3208 47.3235 30.9077 45.9065 30.9077 44.429V41.8179C30.9077 40.3405 30.3208 38.9235 29.276 37.8787C28.2313 36.834 26.8143 36.2471 25.3368 36.2471C23.8594 36.2471 22.4424 36.834 21.3977 37.8787C20.3529 38.9235 19.766 40.3405 19.766 41.8179Z" fill="white"/>
</mask>
<g mask="url(#mask3_6_1930)">
<path d="M20.8641 32.9191L15.6716 48.6382L29.8142 53.3099L35.0067 37.5909L20.8641 32.9191Z" fill="url(#paint3_linear_6_1930)"/>
</g>
<mask id="mask4_6_1930" style="mask-type:luminance" maskUnits="userSpaceOnUse" x="19" y="36" width="12" height="11">
<path d="M19.766 41.8179V42.116C20.3399 41.5899 21.0176 41.1899 21.7556 40.9417C22.4935 40.6936 23.2752 40.6028 24.0504 40.6752C24.8255 40.7476 25.5769 40.9816 26.2561 41.3622C26.9353 41.7427 27.5272 42.2613 27.9938 42.8845L28.0022 42.899L30.5469 46.3873C30.7853 45.7619 30.9079 45.0983 30.9089 44.429V41.8179C30.9089 40.3405 30.322 38.9235 29.2772 37.8787C28.2325 36.834 26.8155 36.2471 25.338 36.2471C23.8606 36.2471 22.4436 36.834 21.3989 37.8787C20.3541 38.9235 19.7672 40.3405 19.7672 41.8179" fill="white"/>
</mask>
<g mask="url(#mask4_6_1930)">
<path d="M23.6378 30.9252L14.9536 42.856L27.062 51.6693L35.7461 39.7385L23.6378 30.9252Z" fill="url(#paint4_linear_6_1930)"/>
</g>
<defs>
<linearGradient id="paint0_linear_6_1930" x1="-7.58864" y1="48.398" x2="39.0213" y2="10.8154" gradientUnits="userSpaceOnUse">
<stop stop-color="#030942"/>
<stop offset="1" stop-color="#2E57EF"/>
</linearGradient>
<linearGradient id="paint1_linear_6_1930" x1="15.5267" y1="14.3828" x2="3.69026" y2="-6.92682" gradientUnits="userSpaceOnUse">
<stop stop-color="#020233"/>
<stop offset="1" stop-color="#2E41EF"/>
</linearGradient>
<linearGradient id="paint2_linear_6_1930" x1="25.9295" y1="10.7595" x2="50.601" y2="10.7595" gradientUnits="userSpaceOnUse">
<stop stop-color="#2D14E0"/>
<stop offset="0.01" stop-color="#2D14E0"/>
<stop offset="1" stop-color="#2575F4"/>
</linearGradient>
<linearGradient id="paint3_linear_6_1930" x1="26.0904" y1="41.4792" x2="22.4391" y2="52.5324" gradientUnits="userSpaceOnUse">
<stop stop-color="#2D14E0"/>
<stop offset="0.01" stop-color="#2D14E0"/>
<stop offset="1" stop-color="#2575F4"/>
</linearGradient>
<linearGradient id="paint4_linear_6_1930" x1="17.1984" y1="34.4177" x2="29.5128" y2="43.3811" gradientUnits="userSpaceOnUse">
<stop stop-color="#020233"/>
<stop offset="1" stop-color="#2E41EF"/>
</linearGradient>
</defs>
</svg>
