<svg width="24" height="24" viewBox="0 0 24 24" fill="none" xmlns="http://www.w3.org/2000/svg">
<path d="M18.5371 19.5668C16.6131 21.2259 14.1289 22.0891 11.5907 21.9803C9.05243 21.8715 6.6512 20.7989 4.87626 18.9812C3.10133 17.1635 2.08628 14.7374 2.03794 12.1973C1.98961 9.65722 2.91163 7.19427 4.61612 5.31035C6.32062 3.42644 8.67932 2.26333 11.2116 2.05805C13.7438 1.85277 16.2591 2.62076 18.2448 4.20552C20.2304 5.79028 21.5372 8.07256 21.8986 10.5873C22.26 13.102 21.649 15.6599 20.1901 17.7398L17.0001 11.9998H20.0001C19.9999 10.156 19.3629 8.36883 18.1967 6.94066C17.0306 5.51249 15.4069 4.53096 13.6004 4.16213C11.7939 3.79329 9.91539 4.05979 8.28274 4.91654C6.65008 5.77328 5.36348 7.16768 4.64058 8.86385C3.91768 10.56 3.80287 12.4538 4.31555 14.2249C4.82824 15.996 5.93695 17.5356 7.45414 18.5833C8.97133 19.631 10.8039 20.1225 12.6417 19.9747C14.4796 19.8268 16.2099 19.0486 17.5401 17.7718L18.5371 19.5668Z" fill="white"/>
</svg>
