<svg width="182" height="70" viewBox="0 0 182 70" fill="none" xmlns="http://www.w3.org/2000/svg">
<mask id="mask0_1_17806" style="mask-type:luminance" maskUnits="userSpaceOnUse" x="12" y="0" width="58" height="50">
<path d="M44.5127 8.71306e-07C43.7184 -0.000456908 42.9344 0.179477 42.2199 0.526236C41.5053 0.872994 40.8788 1.37754 40.3876 2.00176L40.1511 2.31762L40.1309 2.34801L34.5277 10.034L24.9852 23.1171L24.9717 23.1374C24.2261 24.1331 23.2646 24.9469 22.1593 25.5176C21.054 26.0883 19.8338 26.4011 18.5903 26.4325C17.3468 26.4638 16.1123 26.213 14.9796 25.6987C13.847 25.1845 12.8456 24.4202 12.0508 23.4634L18.3922 32.1579L28.2336 45.6548L28.5056 46.0281C29.2038 46.94 30.0999 47.6814 31.1264 48.1966C32.1528 48.7117 33.2829 48.987 34.4312 49.0018C35.5796 49.0166 36.7163 48.7705 37.7557 48.282C38.7951 47.7935 39.7101 47.0754 40.4315 46.1819L40.8724 45.5754L50.6531 32.1612L67.7886 8.66238L68.2853 7.98669C68.7681 7.18976 69.0303 6.27879 69.0451 5.34714C69.0599 4.41549 68.8268 3.49665 68.3695 2.68479C67.9123 1.87292 67.2474 1.19724 66.443 0.726956C65.6386 0.256668 64.7237 0.00869038 63.7919 0.00845527L44.5127 8.71306e-07Z" fill="white"/>
</mask>
<g mask="url(#mask0_1_17806)">
<path d="M46.5921 -27.8508L-11.8992 19.312L34.5055 76.8631L92.9968 29.7003L46.5921 -27.8508Z" fill="url(#paint0_linear_1_17806)"/>
</g>
<mask id="mask1_1_17806" style="mask-type:luminance" maskUnits="userSpaceOnUse" x="0" y="0" width="35" height="27">
<path d="M5.25331 0C4.32272 0.00122953 3.40911 0.249295 2.6057 0.718913C1.8023 1.18853 1.13785 1.86289 0.680169 2.67316C0.222484 3.48342 -0.0120567 4.40059 0.000477273 5.3311C0.0130113 6.26161 0.272172 7.17213 0.751515 7.96978L1.25828 8.66069L11.4443 22.6357L11.4764 22.6779L12.0322 23.4448L12.044 23.4584V23.4685C12.8389 24.4253 13.8402 25.1896 14.9729 25.7038C16.1055 26.218 17.34 26.4689 18.5835 26.4375C19.827 26.4062 21.0473 26.0933 22.1525 25.5226C23.2578 24.9519 24.2194 24.1382 24.9649 23.1425L24.9785 23.1222L34.5209 10.0391L28.9076 2.33622L28.8958 2.32269L28.6931 2.04568V2.03384C28.2025 1.40135 27.5734 0.889722 26.8542 0.538318C26.135 0.186915 25.3448 0.00508385 24.5443 0.00676352L5.25331 0Z" fill="white"/>
</mask>
<g mask="url(#mask1_1_17806)">
<path d="M26.3623 -14.6424L-11.2468 6.24756L8.11586 41.107L45.7249 20.217L26.3623 -14.6424Z" fill="url(#paint1_linear_1_17806)"/>
</g>
<mask id="mask2_1_17806" style="mask-type:luminance" maskUnits="userSpaceOnUse" x="34" y="0" width="36" height="33">
<path d="M44.5126 8.71306e-07C43.7184 -0.000456908 42.9343 0.179477 42.2198 0.526236C41.5052 0.872994 40.8787 1.37754 40.3875 2.00176L40.151 2.31762L40.1308 2.34801L34.5276 10.034L50.6631 32.1629L67.7987 8.66407L68.2953 7.98838C68.7781 7.19145 69.0404 6.28048 69.0552 5.34883C69.07 4.41718 68.8368 3.49834 68.3796 2.68648C67.9223 1.87462 67.2574 1.19889 66.4531 0.728605C65.6487 0.258318 64.7337 0.0103813 63.802 0.0101462L44.5126 8.71306e-07Z" fill="white"/>
</mask>
<g mask="url(#mask2_1_17806)">
<path d="M69.0574 0H34.5295V32.1579H69.0574V0Z" fill="url(#paint2_linear_1_17806)"/>
</g>
<mask id="mask3_1_17806" style="mask-type:luminance" maskUnits="userSpaceOnUse" x="26" y="50" width="17" height="20">
<path d="M26.7285 58.5453V62.2008C26.7285 64.2692 27.5502 66.253 29.0128 67.7156C30.4755 69.1783 32.4592 69.9999 34.5277 69.9999C36.5962 69.9999 38.5799 69.1783 40.0425 67.7156C41.5052 66.253 42.3269 64.2692 42.3269 62.2008V58.5453C42.3269 56.4768 41.5052 54.4931 40.0425 53.0304C38.5799 51.5678 36.5962 50.7461 34.5277 50.7461C32.4592 50.7461 30.4755 51.5678 29.0128 53.0304C27.5502 54.4931 26.7285 56.4768 26.7285 58.5453Z" fill="white"/>
</mask>
<g mask="url(#mask3_1_17806)">
<path d="M28.2658 46.0866L20.9963 68.0933L40.7959 74.6337L48.0654 52.627L28.2658 46.0866Z" fill="url(#paint3_linear_1_17806)"/>
</g>
<mask id="mask4_1_17806" style="mask-type:luminance" maskUnits="userSpaceOnUse" x="26" y="50" width="17" height="15">
<path d="M26.7285 58.5453V58.9625C27.532 58.226 28.4808 57.666 29.5139 57.3186C30.547 56.9712 31.6414 56.8441 32.7266 56.9455C33.8118 57.0469 34.8638 57.3745 35.8147 57.9072C36.7655 58.44 37.5942 59.166 38.2474 60.0386L38.2592 60.0588L41.8218 64.9424C42.1555 64.0668 42.3272 63.1378 42.3286 62.2008V58.5453C42.3286 56.4768 41.5069 54.4931 40.0442 53.0304C38.5816 51.5678 36.5979 50.7461 34.5294 50.7461C32.4609 50.7461 30.4772 51.5678 29.0145 53.0304C27.5519 54.4931 26.7302 56.4768 26.7302 58.5453" fill="white"/>
</mask>
<g mask="url(#mask4_1_17806)">
<path d="M32.1488 43.2954L19.991 59.9985L36.9426 72.3373L49.1004 55.6341L32.1488 43.2954Z" fill="url(#paint4_linear_1_17806)"/>
</g>
<path d="M180.557 16.2903C180.557 16.4547 180.55 16.5961 180.537 16.7144C180.53 16.8262 180.517 16.9249 180.497 17.0103C180.478 17.0892 180.451 17.1583 180.418 17.2175C180.386 17.2767 180.333 17.3457 180.261 17.4246C180.188 17.4969 180.047 17.5923 179.836 17.7106C179.633 17.829 179.379 17.9441 179.077 18.0558C178.781 18.1611 178.439 18.2498 178.051 18.3221C177.67 18.3945 177.256 18.4306 176.808 18.4306C175.934 18.4306 175.145 18.2958 174.441 18.0263C173.738 17.7567 173.139 17.3556 172.646 16.8229C172.153 16.2838 171.775 15.6131 171.512 14.8109C171.249 14.0086 171.117 13.0749 171.117 12.0097C171.117 10.9248 171.262 9.96145 171.551 9.11979C171.841 8.27813 172.245 7.57127 172.765 6.9992C173.284 6.42714 173.905 5.99316 174.629 5.69726C175.359 5.40137 176.161 5.25342 177.035 5.25342C177.39 5.25342 177.732 5.28301 178.061 5.34219C178.39 5.40137 178.692 5.48027 178.969 5.5789C179.251 5.67096 179.504 5.77946 179.728 5.90439C179.952 6.02932 180.106 6.13782 180.192 6.22987C180.284 6.31536 180.346 6.38769 180.379 6.44686C180.412 6.50604 180.438 6.58166 180.458 6.67372C180.478 6.76577 180.491 6.87427 180.497 6.9992C180.51 7.12414 180.517 7.27866 180.517 7.46277C180.517 7.66004 180.51 7.82771 180.497 7.9658C180.484 8.10388 180.461 8.21566 180.428 8.30114C180.395 8.38663 180.356 8.44909 180.31 8.48855C180.264 8.528 180.211 8.54772 180.152 8.54772C180.053 8.54772 179.929 8.49183 179.777 8.38005C179.626 8.26169 179.429 8.13347 179.186 7.99539C178.949 7.85073 178.663 7.7225 178.327 7.61072C177.999 7.49236 177.604 7.43318 177.144 7.43318C176.638 7.43318 176.184 7.53839 175.783 7.74881C175.388 7.95265 175.05 8.24854 174.767 8.63649C174.491 9.01787 174.28 9.48144 174.136 10.0272C173.991 10.573 173.919 11.1878 173.919 11.8716C173.919 12.6212 173.994 13.2722 174.145 13.8245C174.303 14.3703 174.524 14.8207 174.806 15.1758C175.096 15.5309 175.441 15.7972 175.842 15.9747C176.25 16.1457 176.707 16.2312 177.213 16.2312C177.673 16.2312 178.071 16.1785 178.406 16.0733C178.742 15.9616 179.028 15.8399 179.264 15.7084C179.508 15.5769 179.705 15.4585 179.856 15.3533C180.014 15.2481 180.136 15.1955 180.221 15.1955C180.287 15.1955 180.34 15.2087 180.379 15.235C180.418 15.2613 180.451 15.3139 180.478 15.3928C180.504 15.4717 180.524 15.5835 180.537 15.7281C180.55 15.8662 180.557 16.0536 180.557 16.2903Z" fill="black"/>
<path d="M168.948 17.8684C168.948 17.9342 168.925 17.9934 168.879 18.046C168.839 18.0986 168.77 18.1413 168.671 18.1742C168.573 18.2071 168.441 18.2334 168.277 18.2531C168.113 18.2728 167.902 18.2827 167.646 18.2827C167.396 18.2827 167.185 18.2728 167.014 18.2531C166.85 18.2334 166.719 18.2071 166.62 18.1742C166.521 18.1413 166.449 18.0986 166.403 18.046C166.363 17.9934 166.344 17.9342 166.344 17.8684V5.81562C166.344 5.74987 166.363 5.69069 166.403 5.63808C166.449 5.58548 166.521 5.54274 166.62 5.50986C166.725 5.47699 166.86 5.45068 167.024 5.43096C167.189 5.41123 167.396 5.40137 167.646 5.40137C167.902 5.40137 168.113 5.41123 168.277 5.43096C168.441 5.45068 168.573 5.47699 168.671 5.50986C168.77 5.54274 168.839 5.58548 168.879 5.63808C168.925 5.69069 168.948 5.74987 168.948 5.81562V17.8684Z" fill="black"/>
<path d="M163.7 7.44314C163.7 7.63383 163.69 7.79822 163.671 7.9363C163.657 8.07439 163.634 8.18617 163.602 8.27165C163.575 8.35056 163.539 8.40645 163.493 8.43933C163.454 8.4722 163.404 8.48864 163.345 8.48864C163.26 8.48864 163.122 8.42946 162.931 8.31111C162.74 8.19275 162.487 8.06452 162.171 7.92644C161.856 7.78836 161.478 7.66013 161.037 7.54178C160.603 7.42342 160.097 7.36424 159.518 7.36424C158.9 7.36424 158.341 7.47273 157.841 7.68972C157.342 7.90014 156.914 8.20261 156.559 8.59714C156.204 8.98509 155.931 9.45524 155.741 10.0076C155.55 10.5533 155.455 11.1583 155.455 11.8224C155.455 12.5523 155.55 13.1967 155.741 13.7556C155.938 14.3079 156.211 14.7715 156.559 15.1463C156.908 15.5211 157.325 15.8038 157.812 15.9945C158.305 16.1852 158.848 16.2806 159.439 16.2806C159.729 16.2806 160.015 16.2477 160.297 16.1819C160.58 16.1162 160.843 16.0175 161.086 15.886V12.9271H158.67C158.552 12.9271 158.46 12.8547 158.394 12.7101C158.328 12.5589 158.295 12.3057 158.295 11.9506C158.295 11.7665 158.302 11.612 158.315 11.4871C158.335 11.3621 158.361 11.2635 158.394 11.1912C158.427 11.1123 158.466 11.0564 158.512 11.0235C158.558 10.984 158.611 10.9643 158.67 10.9643H162.98C163.085 10.9643 163.177 10.984 163.256 11.0235C163.342 11.0564 163.414 11.109 163.473 11.1813C163.539 11.2536 163.588 11.3424 163.621 11.4476C163.654 11.5462 163.671 11.6613 163.671 11.7928V16.8724C163.671 17.0696 163.634 17.2439 163.562 17.3951C163.496 17.5398 163.355 17.6548 163.138 17.7403C162.928 17.8258 162.665 17.9146 162.349 18.0066C162.033 18.0987 161.705 18.1776 161.363 18.2433C161.027 18.3091 160.685 18.3584 160.337 18.3913C159.995 18.4242 159.65 18.4406 159.301 18.4406C158.282 18.4406 157.368 18.2959 156.559 18.0066C155.757 17.7107 155.076 17.2866 154.518 16.7343C153.959 16.1754 153.531 15.4981 153.235 14.7025C152.939 13.9002 152.792 12.9928 152.792 11.9802C152.792 10.9347 152.949 9.99771 153.265 9.1692C153.581 8.33412 154.028 7.62726 154.606 7.04862C155.185 6.4634 155.882 6.01627 156.697 5.70722C157.519 5.39818 158.433 5.24365 159.439 5.24365C159.992 5.24365 160.495 5.2831 160.948 5.36201C161.402 5.43434 161.797 5.5264 162.132 5.63818C162.474 5.74339 162.757 5.85846 162.98 5.98339C163.204 6.10833 163.358 6.21682 163.444 6.30888C163.536 6.40093 163.602 6.53244 163.641 6.7034C163.68 6.86779 163.7 7.11437 163.7 7.44314Z" fill="black"/>
<path d="M151.924 17.2569C152.003 17.4936 152.052 17.681 152.072 17.8191C152.091 17.9572 152.065 18.0624 151.993 18.1347C151.92 18.2005 151.792 18.24 151.608 18.2531C151.424 18.2728 151.171 18.2827 150.849 18.2827C150.513 18.2827 150.25 18.2761 150.06 18.263C149.875 18.2564 149.734 18.24 149.635 18.2137C149.537 18.1808 149.468 18.138 149.428 18.0854C149.389 18.0328 149.356 17.9638 149.33 17.8783L148.472 15.3139H143.678L142.869 17.8093C142.843 17.9013 142.807 17.9802 142.761 18.046C142.721 18.1052 142.652 18.1545 142.554 18.1939C142.462 18.2268 142.327 18.2498 142.149 18.263C141.978 18.2761 141.751 18.2827 141.469 18.2827C141.166 18.2827 140.93 18.2728 140.759 18.2531C140.588 18.2334 140.469 18.1874 140.404 18.115C140.338 18.0361 140.315 17.9276 140.334 17.7895C140.354 17.6515 140.404 17.4673 140.482 17.2372L144.418 5.91425C144.457 5.80247 144.503 5.7137 144.556 5.64795C144.609 5.57562 144.691 5.52301 144.802 5.49014C144.921 5.45068 145.082 5.42767 145.286 5.42109C145.49 5.40794 145.759 5.40137 146.095 5.40137C146.483 5.40137 146.792 5.40794 147.022 5.42109C147.252 5.42767 147.429 5.45068 147.554 5.49014C147.686 5.52301 147.778 5.57562 147.83 5.64795C147.89 5.72028 147.939 5.81891 147.978 5.94384L151.924 17.2569ZM146.065 7.89675H146.055L144.25 13.3215H147.87L146.065 7.89675Z" fill="black"/>
<path d="M138.687 17.8683C138.687 17.9341 138.667 17.9933 138.628 18.0459C138.595 18.0985 138.529 18.1412 138.431 18.1741C138.339 18.207 138.214 18.2333 138.056 18.253C137.898 18.2727 137.698 18.2826 137.454 18.2826C137.218 18.2826 137.02 18.2727 136.862 18.253C136.705 18.2333 136.58 18.207 136.488 18.1741C136.396 18.1412 136.33 18.0985 136.29 18.0459C136.251 17.9933 136.231 17.9341 136.231 17.8683V7.4824H136.212L132.513 17.8585C132.487 17.944 132.444 18.0163 132.385 18.0755C132.325 18.1281 132.243 18.1708 132.138 18.2037C132.039 18.2366 131.911 18.2563 131.753 18.2629C131.596 18.276 131.405 18.2826 131.181 18.2826C130.958 18.2826 130.767 18.2727 130.609 18.253C130.451 18.2399 130.32 18.2168 130.215 18.184C130.116 18.1445 130.037 18.0985 129.978 18.0459C129.919 17.9933 129.879 17.9308 129.86 17.8585L126.289 7.4824H126.269V17.8683C126.269 17.9341 126.25 17.9933 126.21 18.0459C126.177 18.0985 126.112 18.1412 126.013 18.1741C125.914 18.207 125.786 18.2333 125.628 18.253C125.477 18.2727 125.28 18.2826 125.037 18.2826C124.8 18.2826 124.603 18.2727 124.445 18.253C124.287 18.2333 124.159 18.207 124.06 18.1741C123.968 18.1412 123.902 18.0985 123.863 18.0459C123.83 17.9933 123.813 17.9341 123.813 17.8683V6.49608C123.813 6.16074 123.902 5.90429 124.08 5.72676C124.257 5.54922 124.494 5.46045 124.79 5.46045H126.486C126.789 5.46045 127.049 5.48675 127.266 5.53935C127.483 5.58538 127.67 5.66758 127.828 5.78593C127.986 5.89772 128.117 6.04895 128.222 6.23964C128.328 6.42375 128.42 6.6539 128.498 6.93006L131.26 14.5346H131.3L134.16 6.94979C134.245 6.67362 134.338 6.44019 134.436 6.2495C134.541 6.05882 134.66 5.90429 134.791 5.78593C134.929 5.66758 135.09 5.58538 135.275 5.53935C135.459 5.48675 135.672 5.46045 135.916 5.46045H137.661C137.839 5.46045 137.99 5.48346 138.115 5.52949C138.247 5.57552 138.352 5.64456 138.431 5.73662C138.516 5.8221 138.579 5.93059 138.618 6.0621C138.664 6.18704 138.687 6.3317 138.687 6.49608V17.8683Z" fill="black"/>
<path d="M116.456 17.8684C116.456 17.9342 116.433 17.9934 116.387 18.046C116.347 18.0986 116.278 18.1413 116.18 18.1742C116.081 18.2071 115.949 18.2334 115.785 18.2531C115.621 18.2728 115.41 18.2827 115.154 18.2827C114.904 18.2827 114.693 18.2728 114.523 18.2531C114.358 18.2334 114.227 18.2071 114.128 18.1742C114.029 18.1413 113.957 18.0986 113.911 18.046C113.872 17.9934 113.852 17.9342 113.852 17.8684V5.81562C113.852 5.74987 113.872 5.69069 113.911 5.63808C113.957 5.58548 114.029 5.54274 114.128 5.50986C114.233 5.47699 114.368 5.45068 114.532 5.43096C114.697 5.41123 114.904 5.40137 115.154 5.40137C115.41 5.40137 115.621 5.41123 115.785 5.43096C115.949 5.45068 116.081 5.47699 116.18 5.50986C116.278 5.54274 116.347 5.58548 116.387 5.63808C116.433 5.69069 116.456 5.74987 116.456 5.81562V17.8684Z" fill="black"/>
<path d="M112.126 17.8389C112.126 17.9112 112.106 17.9769 112.066 18.0361C112.034 18.0887 111.965 18.1347 111.859 18.1742C111.761 18.2071 111.623 18.2334 111.445 18.2531C111.268 18.2728 111.044 18.2827 110.774 18.2827C110.347 18.2827 110.038 18.2663 109.847 18.2334C109.663 18.2005 109.528 18.1512 109.443 18.0854C109.364 18.0197 109.301 17.9408 109.255 17.8487L105.399 11.7927V17.8487C105.399 17.921 105.379 17.9835 105.34 18.0361C105.3 18.0887 105.231 18.1347 105.133 18.1742C105.034 18.2071 104.903 18.2334 104.738 18.2531C104.574 18.2728 104.363 18.2827 104.107 18.2827C103.857 18.2827 103.647 18.2728 103.476 18.2531C103.311 18.2334 103.18 18.2071 103.081 18.1742C102.982 18.1347 102.91 18.0887 102.864 18.0361C102.825 17.9835 102.805 17.921 102.805 17.8487V5.82548C102.805 5.75315 102.825 5.69069 102.864 5.63808C102.91 5.58548 102.982 5.54274 103.081 5.50986C103.18 5.47699 103.311 5.45068 103.476 5.43096C103.647 5.41123 103.857 5.40137 104.107 5.40137C104.363 5.40137 104.574 5.41123 104.738 5.43096C104.903 5.45068 105.034 5.47699 105.133 5.50986C105.231 5.54274 105.3 5.58548 105.34 5.63808C105.379 5.69069 105.399 5.75315 105.399 5.82548V11.2601L109.137 5.83535C109.183 5.74987 109.239 5.68082 109.305 5.62822C109.371 5.56904 109.456 5.52301 109.561 5.49014C109.666 5.45726 109.801 5.43424 109.966 5.42109C110.13 5.40794 110.34 5.40137 110.597 5.40137C110.86 5.40137 111.077 5.41123 111.248 5.43096C111.419 5.45068 111.554 5.48027 111.652 5.51973C111.757 5.5526 111.83 5.59534 111.869 5.64795C111.909 5.70055 111.928 5.75973 111.928 5.82548C111.928 5.93727 111.899 6.05234 111.84 6.1707C111.78 6.28905 111.669 6.47646 111.504 6.7329L108.003 11.3193L111.82 17.0893C111.965 17.3588 112.05 17.5397 112.076 17.6317C112.109 17.7172 112.126 17.7862 112.126 17.8389Z" fill="black"/>
<path d="M100.024 13.4695C100.024 14.2519 99.9085 14.9522 99.6783 15.5703C99.4482 16.1884 99.1095 16.7112 98.6624 17.1386C98.2153 17.566 97.6629 17.8915 97.0054 18.115C96.3479 18.3386 95.5917 18.4504 94.7369 18.4504C93.9347 18.4504 93.2146 18.3517 92.5768 18.1545C91.939 17.9506 91.3998 17.6449 90.9593 17.2372C90.5187 16.8295 90.1801 16.3232 89.9434 15.7183C89.7132 15.1067 89.5981 14.3933 89.5981 13.578V5.81562C89.5981 5.74987 89.6179 5.69069 89.6573 5.63808C89.6968 5.58548 89.7658 5.54274 89.8645 5.50986C89.9697 5.47699 90.1045 5.45068 90.2688 5.43096C90.4332 5.41123 90.6436 5.40137 90.9001 5.40137C91.15 5.40137 91.3571 5.41123 91.5215 5.43096C91.6859 5.45068 91.8174 5.47699 91.916 5.50986C92.0146 5.54274 92.0837 5.58548 92.1231 5.63808C92.1692 5.69069 92.1922 5.74987 92.1922 5.81562V13.3511C92.1922 13.8574 92.2546 14.298 92.3796 14.6728C92.5045 15.041 92.682 15.3468 92.9122 15.59C93.1489 15.8333 93.4284 16.0175 93.7505 16.1424C94.0793 16.2607 94.4443 16.3199 94.8454 16.3199C95.253 16.3199 95.618 16.2575 95.9402 16.1325C96.2624 16.0076 96.5353 15.8268 96.7588 15.59C96.9824 15.3468 97.1533 15.0509 97.2717 14.7024C97.3966 14.3473 97.4591 13.9462 97.4591 13.499V5.81562C97.4591 5.74987 97.4788 5.69069 97.5183 5.63808C97.5577 5.58548 97.6268 5.54274 97.7254 5.50986C97.824 5.47699 97.9556 5.45068 98.1199 5.43096C98.2909 5.41123 98.5013 5.40137 98.7512 5.40137C99.0011 5.40137 99.2049 5.41123 99.3627 5.43096C99.5271 5.45068 99.6586 5.47699 99.7572 5.50986C99.8559 5.54274 99.9249 5.58548 99.9644 5.63808C100.004 5.69069 100.024 5.74987 100.024 5.81562V13.4695Z" fill="black"/>
<path d="M84.272 13.3807V17.8684C84.272 17.9342 84.249 17.9934 84.203 18.046C84.1635 18.0986 84.0945 18.1413 83.9958 18.1742C83.8972 18.2071 83.7624 18.2334 83.5914 18.2531C83.427 18.2728 83.2199 18.2827 82.9701 18.2827C82.7136 18.2827 82.5032 18.2728 82.3388 18.2531C82.1744 18.2334 82.0396 18.2071 81.9344 18.1742C81.8358 18.1413 81.7667 18.0986 81.7273 18.046C81.6878 17.9934 81.6681 17.9342 81.6681 17.8684V13.3807L78.1765 6.42714C78.0516 6.18385 77.9694 5.99645 77.93 5.86494C77.8971 5.72685 77.9168 5.62493 77.9891 5.55918C78.068 5.48685 78.2094 5.44411 78.4133 5.43096C78.6171 5.41123 78.8998 5.40137 79.2615 5.40137C79.564 5.40137 79.804 5.40794 79.9815 5.42109C80.1656 5.43424 80.3103 5.46055 80.4155 5.5C80.5207 5.53288 80.5963 5.5789 80.6423 5.63808C80.6949 5.69726 80.7443 5.77288 80.7903 5.86494L82.2106 9.00143C82.3487 9.3039 82.4835 9.62281 82.615 9.95816C82.7531 10.2935 82.8911 10.6453 83.0292 11.0135H83.049C83.1739 10.6584 83.3021 10.3132 83.4336 9.97789C83.5651 9.64254 83.6934 9.32363 83.8183 9.02116L85.2189 5.90439C85.2517 5.79918 85.2912 5.71699 85.3372 5.65781C85.3898 5.59206 85.4654 5.53945 85.5641 5.5C85.6627 5.46055 85.7975 5.43424 85.9685 5.42109C86.1394 5.40794 86.3663 5.40137 86.649 5.40137C87.0238 5.40137 87.3131 5.41123 87.517 5.43096C87.7274 5.44411 87.8688 5.48685 87.9411 5.55918C88.02 5.62493 88.0397 5.72685 88.0003 5.86494C87.9608 6.00302 87.8819 6.19042 87.7636 6.42714L84.272 13.3807Z" fill="black"/>
<path d="M173.897 35.8112C173.897 35.869 173.895 35.9195 173.892 35.9628C173.888 36.0061 173.881 36.044 173.87 36.0765C173.863 36.109 173.852 36.1378 173.837 36.1631C173.823 36.1884 173.798 36.219 173.762 36.2551C173.726 36.2912 173.65 36.3471 173.534 36.4229C173.419 36.4951 173.275 36.5673 173.101 36.6395C172.932 36.708 172.735 36.7658 172.511 36.8127C172.291 36.8632 172.049 36.8885 171.786 36.8885C171.331 36.8885 170.92 36.8127 170.552 36.6611C170.187 36.5095 169.875 36.2858 169.615 35.9899C169.359 35.6939 169.16 35.3294 169.02 34.8964C168.883 34.4597 168.814 33.9581 168.814 33.3915C168.814 32.8105 168.888 32.2926 169.036 31.8379C169.187 31.3832 169.399 30.9988 169.669 30.6848C169.94 30.3673 170.263 30.1255 170.638 29.9595C171.017 29.7935 171.436 29.7104 171.894 29.7104C172.096 29.7104 172.293 29.7303 172.484 29.77C172.675 29.8061 172.852 29.853 173.015 29.9107C173.177 29.9685 173.321 30.0352 173.448 30.111C173.574 30.1868 173.661 30.25 173.708 30.3005C173.758 30.3474 173.791 30.3835 173.805 30.4088C173.819 30.434 173.83 30.4647 173.837 30.5008C173.848 30.5333 173.856 30.573 173.859 30.6199C173.866 30.6668 173.87 30.7227 173.87 30.7877C173.87 30.8599 173.866 30.9212 173.859 30.9717C173.852 31.0223 173.841 31.0656 173.827 31.1017C173.812 31.1341 173.794 31.1594 173.773 31.1775C173.754 31.1919 173.731 31.1991 173.702 31.1991C173.652 31.1991 173.581 31.1648 173.491 31.0963C173.401 31.0241 173.284 30.9465 173.139 30.8635C172.998 30.7769 172.825 30.6993 172.62 30.6307C172.417 30.5585 172.174 30.5224 171.889 30.5224C171.578 30.5224 171.295 30.5856 171.039 30.7119C170.786 30.8346 170.57 31.0169 170.389 31.2587C170.209 31.5004 170.068 31.7964 169.967 32.1464C169.87 32.4929 169.821 32.8899 169.821 33.3374C169.821 33.7812 169.868 34.1746 169.962 34.5175C170.059 34.8567 170.196 35.1418 170.373 35.3728C170.553 35.6001 170.774 35.7733 171.033 35.8924C171.293 36.0079 171.587 36.0657 171.916 36.0657C172.194 36.0657 172.435 36.0314 172.641 35.9628C172.85 35.8942 173.027 35.8184 173.172 35.7354C173.32 35.6488 173.441 35.5712 173.534 35.5027C173.628 35.4341 173.702 35.3998 173.756 35.3998C173.782 35.3998 173.803 35.4052 173.821 35.4161C173.839 35.4269 173.854 35.4485 173.865 35.481C173.875 35.5099 173.883 35.5514 173.886 35.6055C173.893 35.6597 173.897 35.7282 173.897 35.8112Z" fill="black"/>
<path d="M167.358 36.6612C167.358 36.6901 167.351 36.7153 167.336 36.737C167.322 36.7586 167.296 36.7767 167.26 36.7911C167.224 36.8019 167.176 36.8109 167.114 36.8182C167.057 36.829 166.983 36.8344 166.892 36.8344C166.806 36.8344 166.732 36.829 166.67 36.8182C166.609 36.8109 166.56 36.8019 166.524 36.7911C166.488 36.7767 166.463 36.7586 166.448 36.737C166.434 36.7153 166.427 36.6901 166.427 36.6612V29.9379C166.427 29.909 166.434 29.8837 166.448 29.8621C166.466 29.8404 166.494 29.8242 166.53 29.8134C166.569 29.7989 166.618 29.7881 166.676 29.7809C166.737 29.7701 166.809 29.7646 166.892 29.7646C166.983 29.7646 167.057 29.7701 167.114 29.7809C167.176 29.7881 167.224 29.7989 167.26 29.8134C167.296 29.8242 167.322 29.8404 167.336 29.8621C167.351 29.8837 167.358 29.909 167.358 29.9379V36.6612Z" fill="black"/>
<path d="M164.564 36.4175C164.564 36.4896 164.552 36.551 164.527 36.6015C164.505 36.652 164.474 36.6935 164.435 36.726C164.398 36.7585 164.357 36.782 164.31 36.7964C164.263 36.8108 164.216 36.818 164.169 36.818H163.872C163.778 36.818 163.695 36.809 163.623 36.791C163.554 36.7693 163.487 36.7332 163.422 36.6827C163.361 36.6286 163.298 36.5564 163.233 36.4662C163.171 36.376 163.103 36.2605 163.027 36.1197L160.818 32.1355C160.703 31.9298 160.586 31.7151 160.467 31.4914C160.351 31.264 160.243 31.0439 160.142 30.8309H160.131C160.138 31.0908 160.144 31.356 160.147 31.6267C160.151 31.8974 160.153 32.1662 160.153 32.4333V36.6611C160.153 36.6863 160.145 36.7116 160.131 36.7368C160.117 36.7585 160.091 36.7765 160.055 36.791C160.023 36.8018 159.978 36.8108 159.92 36.818C159.866 36.8289 159.795 36.8343 159.709 36.8343C159.622 36.8343 159.55 36.8289 159.492 36.818C159.438 36.8108 159.395 36.8018 159.362 36.791C159.33 36.7765 159.306 36.7585 159.292 36.7368C159.277 36.7116 159.27 36.6863 159.27 36.6611V30.1976C159.27 30.0532 159.31 29.9504 159.389 29.889C159.469 29.8277 159.555 29.797 159.649 29.797H160.093C160.198 29.797 160.284 29.806 160.353 29.8241C160.425 29.8421 160.488 29.8728 160.542 29.9161C160.6 29.9558 160.654 30.0135 160.705 30.0893C160.759 30.1615 160.817 30.2535 160.878 30.3654L162.578 33.4401C162.682 33.6278 162.783 33.8119 162.881 33.9923C162.978 34.1691 163.072 34.3442 163.162 34.5174C163.253 34.6906 163.341 34.862 163.428 35.0317C163.518 35.1977 163.606 35.3655 163.693 35.5351H163.698C163.691 35.25 163.686 34.9541 163.682 34.6473C163.682 34.3369 163.682 34.0392 163.682 33.7541V29.954C163.682 29.9287 163.689 29.9053 163.704 29.8836C163.718 29.862 163.742 29.8439 163.774 29.8295C163.81 29.8114 163.855 29.7988 163.909 29.7916C163.967 29.7844 164.041 29.7808 164.131 29.7808C164.211 29.7808 164.279 29.7844 164.337 29.7916C164.395 29.7988 164.44 29.8114 164.472 29.8295C164.505 29.8439 164.528 29.862 164.543 29.8836C164.557 29.9053 164.564 29.9287 164.564 29.954V36.4175Z" fill="black"/>
<path d="M158.095 36.4717C158.124 36.5511 158.139 36.6161 158.139 36.6666C158.142 36.7135 158.13 36.7496 158.101 36.7749C158.072 36.8001 158.023 36.8164 157.955 36.8236C157.89 36.8308 157.801 36.8344 157.689 36.8344C157.578 36.8344 157.487 36.8308 157.419 36.8236C157.354 36.82 157.303 36.8128 157.267 36.8019C157.235 36.7875 157.21 36.7694 157.191 36.7478C157.177 36.7261 157.163 36.6991 157.148 36.6666L156.547 34.9614H153.635L153.061 36.6449C153.05 36.6774 153.036 36.7063 153.018 36.7316C153 36.7532 152.973 36.7731 152.937 36.7911C152.904 36.8055 152.855 36.8164 152.79 36.8236C152.729 36.8308 152.648 36.8344 152.547 36.8344C152.442 36.8344 152.356 36.829 152.287 36.8182C152.222 36.8109 152.175 36.7947 152.146 36.7694C152.121 36.7442 152.108 36.7081 152.108 36.6612C152.112 36.6107 152.128 36.5457 152.157 36.4663L154.506 29.9595C154.521 29.9198 154.539 29.8873 154.561 29.8621C154.586 29.8368 154.62 29.817 154.663 29.8025C154.71 29.7881 154.768 29.7791 154.837 29.7755C154.909 29.7683 154.999 29.7646 155.107 29.7646C155.223 29.7646 155.318 29.7683 155.394 29.7755C155.47 29.7791 155.531 29.7881 155.578 29.8025C155.625 29.817 155.661 29.8386 155.687 29.8675C155.712 29.8928 155.732 29.9252 155.746 29.9649L158.095 36.4717ZM155.08 30.7282H155.075L153.868 34.2198H156.304L155.08 30.7282Z" fill="black"/>
<path d="M151.118 30.7499C151.118 30.8185 151.114 30.8798 151.107 30.9339C151.1 30.9845 151.089 31.0278 151.075 31.0639C151.06 31.0963 151.042 31.1198 151.02 31.1342C150.999 31.1487 150.975 31.1559 150.95 31.1559C150.907 31.1559 150.835 31.1216 150.734 31.053C150.633 30.9845 150.497 30.9087 150.328 30.8257C150.158 30.7427 149.954 30.6669 149.716 30.5983C149.481 30.5297 149.202 30.4955 148.877 30.4955C148.491 30.4955 148.144 30.5658 147.837 30.7066C147.531 30.8473 147.271 31.0422 147.058 31.2912C146.845 31.5402 146.681 31.8362 146.565 32.179C146.453 32.5218 146.398 32.8935 146.398 33.2941C146.398 33.7416 146.459 34.1386 146.582 34.4851C146.708 34.8315 146.881 35.1238 147.101 35.362C147.321 35.6002 147.583 35.7806 147.886 35.9033C148.193 36.026 148.529 36.0874 148.893 36.0874C149.11 36.0874 149.328 36.0621 149.548 36.0116C149.772 35.9575 149.979 35.8781 150.171 35.7734V33.7326H148.547C148.485 33.7326 148.438 33.7019 148.406 33.6406C148.377 33.5792 148.363 33.4836 148.363 33.3537C148.363 33.2851 148.366 33.2274 148.373 33.1805C148.381 33.1299 148.391 33.0902 148.406 33.0614C148.424 33.0289 148.444 33.0054 148.465 32.991C148.487 32.9766 148.514 32.9693 148.547 32.9693H150.771C150.811 32.9693 150.851 32.9766 150.891 32.991C150.93 33.0054 150.966 33.0271 150.999 33.0559C151.031 33.0848 151.057 33.1245 151.075 33.175C151.093 33.2256 151.102 33.2833 151.102 33.3483V36.017C151.102 36.1108 151.085 36.192 151.053 36.2606C151.02 36.3292 150.952 36.3905 150.847 36.4447C150.743 36.4952 150.607 36.5511 150.441 36.6125C150.275 36.6738 150.104 36.7262 149.927 36.7695C149.75 36.8128 149.572 36.8453 149.391 36.8669C149.211 36.8886 149.032 36.8994 148.855 36.8994C148.314 36.8994 147.83 36.8164 147.404 36.6504C146.979 36.4808 146.618 36.2408 146.322 35.9304C146.029 35.62 145.806 35.2483 145.65 34.8153C145.495 34.3822 145.418 33.8986 145.418 33.3645C145.418 32.8087 145.501 32.3053 145.667 31.8542C145.836 31.4031 146.073 31.0187 146.376 30.7012C146.683 30.3836 147.049 30.1382 147.475 29.965C147.904 29.7881 148.379 29.6997 148.898 29.6997C149.166 29.6997 149.416 29.7232 149.651 29.7701C149.885 29.817 150.093 29.8729 150.273 29.9379C150.457 29.9992 150.611 30.0678 150.734 30.1436C150.86 30.2158 150.947 30.2753 150.993 30.3222C151.04 30.3692 151.073 30.4233 151.091 30.4846C151.109 30.546 151.118 30.6344 151.118 30.7499Z" fill="black"/>
<path d="M144.616 36.6609C144.616 36.6898 144.611 36.7151 144.6 36.7367C144.589 36.7584 144.566 36.7764 144.53 36.7908C144.494 36.8053 144.443 36.8161 144.378 36.8233C144.313 36.8305 144.227 36.8342 144.118 36.8342C144.025 36.8342 143.947 36.8305 143.886 36.8233C143.828 36.8161 143.781 36.8053 143.745 36.7908C143.709 36.7728 143.68 36.7493 143.658 36.7205C143.64 36.6916 143.624 36.6555 143.61 36.6122L142.965 34.9612C142.89 34.7735 142.81 34.6021 142.727 34.4469C142.648 34.2881 142.552 34.1528 142.44 34.0409C142.328 33.9254 142.197 33.837 142.045 33.7756C141.894 33.7107 141.711 33.6782 141.498 33.6782H140.876V36.6609C140.876 36.6898 140.867 36.7151 140.849 36.7367C140.834 36.7584 140.809 36.7764 140.773 36.7908C140.741 36.8017 140.694 36.8107 140.632 36.8179C140.575 36.8287 140.501 36.8342 140.41 36.8342C140.32 36.8342 140.244 36.8287 140.183 36.8179C140.125 36.8107 140.078 36.8017 140.042 36.7908C140.006 36.7764 139.981 36.7584 139.966 36.7367C139.952 36.7151 139.945 36.6898 139.945 36.6609V30.1758C139.945 30.0351 139.981 29.9376 140.053 29.8835C140.129 29.8257 140.208 29.7969 140.291 29.7969H141.78C141.957 29.7969 142.103 29.8023 142.218 29.8131C142.337 29.8203 142.444 29.8294 142.538 29.8402C142.808 29.8871 143.047 29.9611 143.252 30.0621C143.462 30.1632 143.637 30.2913 143.777 30.4465C143.918 30.6017 144.023 30.7803 144.091 30.9824C144.164 31.1809 144.2 31.401 144.2 31.6428C144.2 31.8774 144.167 32.0885 144.102 32.2762C144.041 32.4602 143.951 32.6244 143.832 32.7688C143.712 32.9095 143.57 33.0322 143.404 33.1369C143.238 33.2415 143.052 33.3299 142.846 33.4021C142.962 33.4527 143.066 33.5176 143.16 33.597C143.254 33.6728 143.341 33.7648 143.42 33.8731C143.503 33.9813 143.581 34.1059 143.653 34.2466C143.725 34.3873 143.797 34.5461 143.869 34.723L144.497 36.2658C144.548 36.3957 144.58 36.4877 144.595 36.5418C144.609 36.5924 144.616 36.6321 144.616 36.6609ZM143.214 31.7402C143.214 31.466 143.153 31.235 143.03 31.0473C142.908 30.8561 142.702 30.7189 142.413 30.6359C142.323 30.6107 142.22 30.5926 142.105 30.5818C141.993 30.571 141.845 30.5656 141.661 30.5656H140.876V32.9258H141.785C142.031 32.9258 142.242 32.8969 142.419 32.8391C142.599 32.7778 142.749 32.6948 142.868 32.5901C142.987 32.4819 143.074 32.3556 143.128 32.2112C143.186 32.0668 143.214 31.9099 143.214 31.7402Z" fill="black"/>
<path d="M138.472 33.2184C138.472 33.785 138.406 34.2956 138.272 34.7504C138.139 35.2051 137.938 35.593 137.671 35.9142C137.408 36.2318 137.076 36.4772 136.675 36.6504C136.275 36.82 135.807 36.9048 135.273 36.9048C134.746 36.9048 134.29 36.8272 133.904 36.6721C133.521 36.5133 133.203 36.2841 132.951 35.9846C132.702 35.685 132.516 35.3133 132.393 34.8694C132.271 34.4256 132.209 33.9149 132.209 33.3375C132.209 32.7853 132.276 32.2837 132.41 31.8326C132.543 31.3815 132.743 30.9989 133.01 30.685C133.277 30.3674 133.611 30.1238 134.012 29.9542C134.412 29.7809 134.88 29.6943 135.414 29.6943C135.93 29.6943 136.379 29.7719 136.762 29.9271C137.144 30.0823 137.462 30.3096 137.715 30.6092C137.971 30.9051 138.16 31.2732 138.283 31.7135C138.409 32.1502 138.472 32.6518 138.472 33.2184ZM137.493 33.2833C137.493 32.8864 137.457 32.5183 137.384 32.179C137.316 31.8362 137.198 31.5403 137.032 31.2913C136.87 31.0386 136.652 30.842 136.377 30.7012C136.103 30.5605 135.764 30.4901 135.36 30.4901C134.956 30.4901 134.616 30.5659 134.342 30.7174C134.068 30.869 133.844 31.0711 133.671 31.3237C133.501 31.5764 133.378 31.8723 133.303 32.2115C133.231 32.5471 133.194 32.9008 133.194 33.2725C133.194 33.6839 133.229 34.0629 133.297 34.4093C133.366 34.7558 133.481 35.0553 133.644 35.3079C133.806 35.5569 134.023 35.7518 134.293 35.8926C134.568 36.0297 134.91 36.0983 135.322 36.0983C135.73 36.0983 136.073 36.0225 136.35 35.8709C136.628 35.7193 136.852 35.5154 137.022 35.2592C137.191 34.9994 137.312 34.6998 137.384 34.3606C137.457 34.0214 137.493 33.6623 137.493 33.2833Z" fill="black"/>
<path d="M122.178 34.9558C122.178 34.7573 122.206 34.5697 122.26 34.3928C122.314 34.2124 122.399 34.0392 122.514 33.8732C122.63 33.7036 122.779 33.5412 122.963 33.386C123.151 33.2272 123.377 33.0684 123.64 32.9096C123.496 32.7147 123.371 32.5379 123.267 32.3791C123.165 32.2203 123.081 32.0724 123.012 31.9352C122.947 31.7981 122.9 31.6682 122.871 31.5455C122.842 31.4191 122.828 31.2928 122.828 31.1665C122.828 30.9428 122.866 30.7299 122.942 30.5278C123.018 30.3221 123.138 30.1416 123.304 29.9864C123.474 29.8276 123.691 29.7031 123.954 29.6129C124.217 29.5191 124.537 29.4722 124.912 29.4722C125.23 29.4722 125.504 29.5065 125.735 29.575C125.97 29.6436 126.163 29.741 126.314 29.8673C126.469 29.9936 126.585 30.147 126.661 30.3275C126.74 30.5043 126.78 30.7028 126.78 30.9229C126.78 31.1359 126.745 31.3307 126.677 31.5076C126.608 31.6844 126.498 31.8558 126.347 32.0218C126.195 32.1878 126 32.3538 125.762 32.5199C125.527 32.6822 125.242 32.8537 124.907 33.0341C125.029 33.1821 125.163 33.3373 125.307 33.4997C125.452 33.6584 125.601 33.819 125.757 33.9814C125.915 34.1438 126.076 34.3044 126.238 34.4632C126.404 34.6184 126.567 34.7682 126.726 34.9125C126.798 34.8151 126.863 34.705 126.921 34.5823C126.978 34.456 127.029 34.3243 127.072 34.1871C127.115 34.0464 127.148 33.9038 127.17 33.7595C127.191 33.6151 127.202 33.469 127.202 33.321V33.1261C127.202 33.09 127.207 33.0612 127.218 33.0395C127.233 33.0143 127.254 32.9944 127.283 32.98C127.312 32.9619 127.354 32.9493 127.408 32.9421C127.465 32.9349 127.539 32.9313 127.63 32.9313C127.709 32.9313 127.776 32.9331 127.83 32.9367C127.888 32.9403 127.935 32.9493 127.971 32.9637C128.007 32.9746 128.032 32.9944 128.046 33.0233C128.065 33.0485 128.074 33.0846 128.074 33.1316V33.2669C128.074 33.469 128.055 33.6675 128.019 33.8623C127.987 34.0572 127.94 34.2485 127.879 34.4362C127.821 34.6202 127.747 34.797 127.657 34.9667C127.57 35.1363 127.473 35.2933 127.364 35.4376C127.527 35.5675 127.668 35.6758 127.787 35.7624C127.909 35.849 128.012 35.9194 128.095 35.9735C128.182 36.0277 128.252 36.0656 128.306 36.0872C128.364 36.1089 128.411 36.1197 128.447 36.1197C128.483 36.1197 128.517 36.1179 128.55 36.1143C128.582 36.1107 128.608 36.1161 128.626 36.1305C128.647 36.1449 128.664 36.1738 128.674 36.2171C128.685 36.2604 128.691 36.3272 128.691 36.4174C128.691 36.5076 128.689 36.5798 128.685 36.634C128.682 36.6881 128.674 36.7296 128.664 36.7585C128.656 36.7837 128.642 36.8054 128.62 36.8234C128.599 36.8415 128.559 36.8577 128.501 36.8721C128.443 36.8866 128.368 36.8938 128.274 36.8938C128.202 36.8938 128.122 36.8812 128.036 36.8559C127.949 36.8306 127.848 36.7873 127.733 36.726C127.617 36.661 127.482 36.5744 127.327 36.4661C127.175 36.3579 126.996 36.2207 126.791 36.0547C126.639 36.1774 126.478 36.2911 126.309 36.3958C126.143 36.5004 125.964 36.5906 125.773 36.6664C125.585 36.7386 125.387 36.7945 125.177 36.8342C124.972 36.8775 124.748 36.8992 124.506 36.8992C124.279 36.8992 124.062 36.8794 123.857 36.8397C123.654 36.8 123.467 36.744 123.294 36.6718C123.12 36.5961 122.965 36.5022 122.828 36.3904C122.691 36.2785 122.574 36.1522 122.476 36.0114C122.382 35.8671 122.308 35.7065 122.254 35.5296C122.204 35.3528 122.178 35.1615 122.178 34.9558ZM123.775 31.0962C123.775 31.1936 123.788 31.2928 123.813 31.3939C123.842 31.4949 123.884 31.6014 123.938 31.7133C123.996 31.8215 124.064 31.9388 124.143 32.0651C124.226 32.1914 124.324 32.3322 124.436 32.4874C124.699 32.3394 124.919 32.2041 125.096 32.0814C125.277 31.9551 125.421 31.8342 125.529 31.7187C125.638 31.6032 125.715 31.4877 125.762 31.3722C125.813 31.2567 125.838 31.134 125.838 31.0041C125.838 30.8995 125.818 30.8002 125.778 30.7064C125.742 30.609 125.683 30.5242 125.6 30.452C125.517 30.3762 125.412 30.3166 125.286 30.2733C125.159 30.23 125.008 30.2084 124.831 30.2084C124.64 30.2084 124.477 30.2336 124.344 30.2842C124.214 30.3311 124.106 30.396 124.019 30.479C123.936 30.5584 123.875 30.6523 123.835 30.7605C123.795 30.8688 123.775 30.9807 123.775 31.0962ZM123.147 34.8638C123.147 35.0515 123.178 35.2229 123.239 35.3781C123.304 35.5332 123.398 35.6686 123.521 35.7841C123.644 35.8959 123.797 35.9844 123.981 36.0493C124.165 36.1107 124.378 36.1413 124.62 36.1413C124.768 36.1413 124.912 36.1269 125.053 36.098C125.194 36.0656 125.327 36.0241 125.454 35.9735C125.583 35.9194 125.706 35.8562 125.822 35.7841C125.937 35.7083 126.044 35.6289 126.141 35.5459C125.953 35.3835 125.766 35.2157 125.578 35.0424C125.394 34.8656 125.215 34.6888 125.042 34.5119C124.869 34.3351 124.701 34.1601 124.539 33.9869C124.38 33.81 124.234 33.6386 124.1 33.4726C123.92 33.5881 123.768 33.7036 123.645 33.819C123.526 33.9309 123.429 34.0446 123.353 34.1601C123.281 34.272 123.229 34.3856 123.196 34.5011C123.164 34.6166 123.147 34.7375 123.147 34.8638Z" fill="black"/>
<path d="M118.979 36.3959C118.979 36.4681 118.976 36.5295 118.968 36.58C118.961 36.6269 118.949 36.6684 118.931 36.7045C118.916 36.737 118.896 36.7622 118.871 36.7803C118.849 36.7947 118.822 36.8019 118.79 36.8019H115.693C115.61 36.8019 115.531 36.7749 115.455 36.7207C115.383 36.663 115.347 36.5637 115.347 36.423V29.9379C115.347 29.909 115.354 29.8837 115.369 29.8621C115.383 29.8404 115.408 29.8242 115.444 29.8134C115.48 29.7989 115.529 29.7881 115.591 29.7809C115.652 29.7701 115.726 29.7646 115.812 29.7646C115.903 29.7646 115.977 29.7701 116.034 29.7809C116.096 29.7881 116.144 29.7989 116.181 29.8134C116.217 29.8242 116.242 29.8404 116.256 29.8621C116.271 29.8837 116.278 29.909 116.278 29.9379V35.9953H118.79C118.822 35.9953 118.849 36.0044 118.871 36.0224C118.896 36.0368 118.916 36.0603 118.931 36.0928C118.949 36.1217 118.961 36.1614 118.968 36.2119C118.976 36.2624 118.979 36.3238 118.979 36.3959Z" fill="black"/>
<path d="M114.172 36.4717C114.201 36.5511 114.215 36.6161 114.215 36.6666C114.219 36.7135 114.206 36.7496 114.178 36.7749C114.149 36.8001 114.1 36.8164 114.031 36.8236C113.966 36.8308 113.878 36.8344 113.766 36.8344C113.654 36.8344 113.564 36.8308 113.495 36.8236C113.431 36.82 113.38 36.8128 113.344 36.8019C113.311 36.7875 113.286 36.7694 113.268 36.7478C113.254 36.7261 113.239 36.6991 113.225 36.6666L112.624 34.9614H109.712L109.138 36.6449C109.127 36.6774 109.113 36.7063 109.094 36.7316C109.076 36.7532 109.049 36.7731 109.013 36.7911C108.981 36.8055 108.932 36.8164 108.867 36.8236C108.806 36.8308 108.725 36.8344 108.624 36.8344C108.519 36.8344 108.432 36.829 108.364 36.8182C108.299 36.8109 108.252 36.7947 108.223 36.7694C108.198 36.7442 108.185 36.7081 108.185 36.6612C108.189 36.6107 108.205 36.5457 108.234 36.4663L110.583 29.9595C110.598 29.9198 110.616 29.8873 110.637 29.8621C110.663 29.8368 110.697 29.817 110.74 29.8025C110.787 29.7881 110.845 29.7791 110.913 29.7755C110.986 29.7683 111.076 29.7646 111.184 29.7646C111.3 29.7646 111.395 29.7683 111.471 29.7755C111.547 29.7791 111.608 29.7881 111.655 29.8025C111.702 29.817 111.738 29.8386 111.763 29.8675C111.789 29.8928 111.808 29.9252 111.823 29.9649L114.172 36.4717ZM111.157 30.7282H111.152L109.944 34.2198H112.38L111.157 30.7282Z" fill="black"/>
<path d="M107.579 36.6609C107.579 36.6898 107.573 36.7151 107.562 36.7367C107.552 36.7584 107.528 36.7764 107.492 36.7908C107.456 36.8053 107.405 36.8161 107.34 36.8233C107.276 36.8305 107.189 36.8342 107.081 36.8342C106.987 36.8342 106.909 36.8305 106.848 36.8233C106.79 36.8161 106.743 36.8053 106.707 36.7908C106.671 36.7728 106.642 36.7493 106.62 36.7205C106.602 36.6916 106.586 36.6555 106.572 36.6122L105.928 34.9612C105.852 34.7735 105.772 34.6021 105.689 34.4469C105.61 34.2881 105.514 34.1528 105.403 34.0409C105.291 33.9254 105.159 33.837 105.007 33.7756C104.856 33.7107 104.674 33.6782 104.461 33.6782H103.838V36.6609C103.838 36.6898 103.829 36.7151 103.811 36.7367C103.797 36.7584 103.771 36.7764 103.735 36.7908C103.703 36.8017 103.656 36.8107 103.594 36.8179C103.537 36.8287 103.463 36.8342 103.373 36.8342C103.282 36.8342 103.207 36.8287 103.145 36.8179C103.087 36.8107 103.041 36.8017 103.004 36.7908C102.968 36.7764 102.943 36.7584 102.929 36.7367C102.914 36.7151 102.907 36.6898 102.907 36.6609V30.1758C102.907 30.0351 102.943 29.9376 103.015 29.8835C103.091 29.8257 103.17 29.7969 103.253 29.7969H104.742C104.919 29.7969 105.065 29.8023 105.181 29.8131C105.3 29.8203 105.406 29.8294 105.5 29.8402C105.771 29.8871 106.009 29.9611 106.215 30.0621C106.424 30.1632 106.599 30.2913 106.74 30.4465C106.88 30.6017 106.985 30.7803 107.054 30.9824C107.126 31.1809 107.162 31.401 107.162 31.6428C107.162 31.8774 107.129 32.0885 107.064 32.2762C107.003 32.4602 106.913 32.6244 106.794 32.7688C106.675 32.9095 106.532 33.0322 106.366 33.1369C106.2 33.2415 106.014 33.3299 105.809 33.4021C105.924 33.4527 106.029 33.5176 106.122 33.597C106.216 33.6728 106.303 33.7648 106.382 33.8731C106.465 33.9813 106.543 34.1059 106.615 34.2466C106.687 34.3873 106.759 34.5461 106.832 34.723L107.46 36.2658C107.51 36.3957 107.543 36.4877 107.557 36.5418C107.571 36.5924 107.579 36.6321 107.579 36.6609ZM106.177 31.7402C106.177 31.466 106.115 31.235 105.993 31.0473C105.87 30.8561 105.664 30.7189 105.375 30.6359C105.285 30.6107 105.182 30.5926 105.067 30.5818C104.955 30.571 104.807 30.5656 104.623 30.5656H103.838V32.9258H104.748C104.993 32.9258 105.204 32.8969 105.381 32.8391C105.561 32.7778 105.711 32.6948 105.83 32.5901C105.949 32.4819 106.036 32.3556 106.09 32.2112C106.148 32.0668 106.177 31.9099 106.177 31.7402Z" fill="black"/>
<path d="M101.061 34.2144C101.061 34.6402 100.998 35.021 100.872 35.3566C100.749 35.6886 100.572 35.9701 100.341 36.2011C100.11 36.432 99.8287 36.607 99.4967 36.7261C99.1647 36.8452 98.7876 36.9048 98.3653 36.9048C97.9792 36.9048 97.6273 36.8488 97.3098 36.737C96.9922 36.6251 96.7197 36.4609 96.4923 36.2444C96.265 36.0242 96.09 35.7499 95.9673 35.4215C95.8446 35.0931 95.7832 34.7142 95.7832 34.2847V29.9379C95.7832 29.909 95.7904 29.8837 95.8049 29.8621C95.8193 29.8404 95.8446 29.8242 95.8806 29.8134C95.9167 29.7989 95.9636 29.7881 96.0214 29.7809C96.0791 29.7701 96.1549 29.7646 96.2487 29.7646C96.3354 29.7646 96.4093 29.7701 96.4707 29.7809C96.532 29.7881 96.579 29.7989 96.6114 29.8134C96.6475 29.8242 96.6728 29.8404 96.6872 29.8621C96.7017 29.8837 96.7089 29.909 96.7089 29.9379V34.1711C96.7089 34.4959 96.7486 34.7792 96.828 35.021C96.9074 35.2627 97.021 35.4648 97.169 35.6272C97.3206 35.786 97.501 35.9069 97.7103 35.9899C97.9233 36.0693 98.1614 36.109 98.4249 36.109C98.6956 36.109 98.9355 36.0693 99.1449 35.9899C99.3578 35.9105 99.5364 35.7914 99.6808 35.6327C99.8287 35.4739 99.9406 35.2772 100.016 35.0426C100.096 34.808 100.135 34.5338 100.135 34.2198V29.9379C100.135 29.909 100.143 29.8837 100.157 29.8621C100.172 29.8404 100.197 29.8242 100.233 29.8134C100.269 29.7989 100.316 29.7881 100.374 29.7809C100.435 29.7701 100.511 29.7646 100.601 29.7646C100.688 29.7646 100.76 29.7701 100.818 29.7809C100.879 29.7881 100.926 29.7989 100.958 29.8134C100.994 29.8242 101.02 29.8404 101.034 29.8621C101.052 29.8837 101.061 29.909 101.061 29.9379V34.2144Z" fill="black"/>
<path d="M94.7818 30.1975C94.7818 30.266 94.7782 30.3256 94.771 30.3761C94.7638 30.4266 94.7511 30.4681 94.7331 30.5006C94.7187 30.5295 94.6988 30.5511 94.6735 30.5656C94.6519 30.58 94.6266 30.5872 94.5978 30.5872H92.6273V36.6609C92.6273 36.6898 92.6201 36.7151 92.6057 36.7367C92.5912 36.7584 92.566 36.7764 92.5299 36.7908C92.4938 36.8017 92.4451 36.8107 92.3837 36.8179C92.326 36.8287 92.252 36.8342 92.1618 36.8342C92.0752 36.8342 92.0012 36.8287 91.9398 36.8179C91.8785 36.8107 91.8298 36.8017 91.7937 36.7908C91.7576 36.7764 91.7323 36.7584 91.7179 36.7367C91.7035 36.7151 91.6962 36.6898 91.6962 36.6609V30.5872H89.7258C89.6969 30.5872 89.6699 30.58 89.6446 30.5656C89.6229 30.5511 89.6049 30.5295 89.5905 30.5006C89.576 30.4681 89.5634 30.4266 89.5526 30.3761C89.5454 30.3256 89.5417 30.266 89.5417 30.1975C89.5417 30.1289 89.5454 30.0693 89.5526 30.0188C89.5634 29.9647 89.576 29.9214 89.5905 29.8889C89.6049 29.8564 89.6229 29.833 89.6446 29.8185C89.6699 29.8041 89.6969 29.7969 89.7258 29.7969H94.5978C94.6266 29.7969 94.6519 29.8041 94.6735 29.8185C94.6988 29.833 94.7187 29.8564 94.7331 29.8889C94.7511 29.9214 94.7638 29.9647 94.771 30.0188C94.7782 30.0693 94.7818 30.1289 94.7818 30.1975Z" fill="black"/>
<path d="M90.083 36.4717C90.1119 36.5511 90.1264 36.6161 90.1264 36.6666C90.13 36.7135 90.1173 36.7496 90.0885 36.7749C90.0596 36.8001 90.0109 36.8164 89.9423 36.8236C89.8773 36.8308 89.7889 36.8344 89.677 36.8344C89.5652 36.8344 89.475 36.8308 89.4064 36.8236C89.3414 36.82 89.2909 36.8128 89.2548 36.8019C89.2223 36.7875 89.1971 36.7694 89.179 36.7478C89.1646 36.7261 89.1502 36.6991 89.1357 36.6666L88.5348 34.9614H85.6225L85.0487 36.6449C85.0379 36.6774 85.0234 36.7063 85.0054 36.7316C84.9873 36.7532 84.9603 36.7731 84.9242 36.7911C84.8917 36.8055 84.843 36.8164 84.778 36.8236C84.7167 36.8308 84.6355 36.8344 84.5344 36.8344C84.4298 36.8344 84.3432 36.829 84.2746 36.8182C84.2096 36.8109 84.1627 36.7947 84.1338 36.7694C84.1086 36.7442 84.0959 36.7081 84.0959 36.6612C84.0996 36.6107 84.1158 36.5457 84.1447 36.4663L86.494 29.9595C86.5085 29.9198 86.5265 29.8873 86.5482 29.8621C86.5734 29.8368 86.6077 29.817 86.651 29.8025C86.6979 29.7881 86.7557 29.7791 86.8242 29.7755C86.8964 29.7683 86.9866 29.7646 87.0949 29.7646C87.2104 29.7646 87.306 29.7683 87.3818 29.7755C87.4576 29.7791 87.519 29.7881 87.5659 29.8025C87.6128 29.817 87.6489 29.8386 87.6741 29.8675C87.6994 29.8928 87.7192 29.9252 87.7337 29.9649L90.083 36.4717ZM87.0678 30.7282H87.0624L85.8553 34.2198H88.2912L87.0678 30.7282Z" fill="black"/>
<path d="M82.9754 36.4175C82.9754 36.4896 82.9627 36.551 82.9375 36.6015C82.9158 36.652 82.8851 36.6935 82.8454 36.726C82.8093 36.7585 82.7678 36.782 82.7209 36.7964C82.674 36.8108 82.6271 36.818 82.5802 36.818H82.2825C82.1886 36.818 82.1056 36.809 82.0334 36.791C81.9649 36.7693 81.8981 36.7332 81.8331 36.6827C81.7718 36.6286 81.7086 36.5564 81.6437 36.4662C81.5823 36.376 81.5138 36.2605 81.438 36.1197L79.2294 32.1355C79.1139 31.9298 78.9966 31.7151 78.8775 31.4914C78.762 31.264 78.6537 31.0439 78.5527 30.8309H78.5419C78.5491 31.0908 78.5545 31.356 78.5581 31.6267C78.5617 31.8974 78.5635 32.1662 78.5635 32.4333V36.6611C78.5635 36.6863 78.5563 36.7116 78.5419 36.7368C78.5274 36.7585 78.5022 36.7765 78.4661 36.791C78.4336 36.8018 78.3885 36.8108 78.3307 36.818C78.2766 36.8289 78.2062 36.8343 78.1196 36.8343C78.033 36.8343 77.9608 36.8289 77.9031 36.818C77.849 36.8108 77.8057 36.8018 77.7732 36.791C77.7407 36.7765 77.7172 36.7585 77.7028 36.7368C77.6884 36.7116 77.6812 36.6863 77.6812 36.6611V30.1976C77.6812 30.0532 77.7208 29.9504 77.8002 29.889C77.8796 29.8277 77.9663 29.797 78.0601 29.797H78.504C78.6086 29.797 78.6952 29.806 78.7638 29.8241C78.836 29.8421 78.8991 29.8728 78.9533 29.9161C79.011 29.9558 79.0652 30.0135 79.1157 30.0893C79.1698 30.1615 79.2275 30.2535 79.2889 30.3654L80.9887 33.4401C81.0933 33.6278 81.1944 33.8119 81.2918 33.9923C81.3893 34.1691 81.4831 34.3442 81.5733 34.5174C81.6635 34.6906 81.7519 34.862 81.8386 35.0317C81.9288 35.1977 82.0172 35.3655 82.1038 35.5351H82.1092C82.102 35.25 82.0966 34.9541 82.093 34.6473C82.093 34.3369 82.093 34.0392 82.093 33.7541V29.954C82.093 29.9287 82.1002 29.9053 82.1146 29.8836C82.1291 29.862 82.1525 29.8439 82.185 29.8295C82.2211 29.8114 82.2662 29.7988 82.3203 29.7916C82.3781 29.7844 82.4521 29.7808 82.5423 29.7808C82.6217 29.7808 82.6903 29.7844 82.748 29.7916C82.8057 29.7988 82.8508 29.8114 82.8833 29.8295C82.9158 29.8439 82.9393 29.862 82.9537 29.8836C82.9681 29.9053 82.9754 29.9287 82.9754 29.954V36.4175Z" fill="black"/>
<defs>
<linearGradient id="paint0_linear_1_17806" x1="-11.5682" y1="67.757" x2="53.6857" y2="15.1413" gradientUnits="userSpaceOnUse">
<stop stop-color="#030942"/>
<stop offset="1" stop-color="#2E57EF"/>
</linearGradient>
<linearGradient id="paint1_linear_1_17806" x1="20.7931" y1="20.1361" x2="4.22214" y2="-9.69733" gradientUnits="userSpaceOnUse">
<stop stop-color="#020233"/>
<stop offset="1" stop-color="#2E41EF"/>
</linearGradient>
<linearGradient id="paint2_linear_1_17806" x1="35.3573" y1="15.0633" x2="69.8974" y2="15.0633" gradientUnits="userSpaceOnUse">
<stop stop-color="#2D14E0"/>
<stop offset="0.01" stop-color="#2D14E0"/>
<stop offset="1" stop-color="#2575F4"/>
</linearGradient>
<linearGradient id="paint3_linear_1_17806" x1="35.5825" y1="58.0707" x2="30.4708" y2="73.5452" gradientUnits="userSpaceOnUse">
<stop stop-color="#2D14E0"/>
<stop offset="0.01" stop-color="#2D14E0"/>
<stop offset="1" stop-color="#2575F4"/>
</linearGradient>
<linearGradient id="paint4_linear_1_17806" x1="23.1336" y1="48.185" x2="40.3739" y2="60.7337" gradientUnits="userSpaceOnUse">
<stop stop-color="#020233"/>
<stop offset="1" stop-color="#2E41EF"/>
</linearGradient>
</defs>
</svg>
