<svg width="22" height="19" viewBox="0 0 22 19" fill="none" xmlns="http://www.w3.org/2000/svg">
<path d="M10.9999 2.50418e-07C13.5707 -0.00054807 16.0606 0.899378 18.037 2.54348C20.0134 4.18759 21.3515 6.47201 21.8189 9C21.3541 11.5303 20.0172 13.8177 18.0405 15.4644C16.0639 17.111 13.5726 18.0127 10.9999 18.0127C8.42725 18.0127 5.93596 17.111 3.95931 15.4644C1.98266 13.8177 0.645687 11.5303 0.180908 9C0.648334 6.47201 1.98644 4.18759 3.96284 2.54348C5.93924 0.899378 8.42907 -0.00054807 10.9999 2.50418e-07ZM10.9999 16C13.0396 16.0005 15.019 15.3081 16.6136 14.0363C18.2083 12.7645 19.3236 10.9887 19.7769 9C19.3254 7.00964 18.2108 5.23184 16.616 3.95829C15.0212 2.68473 13.0408 1.99105 10.9999 1.99105C8.95898 1.99105 6.97865 2.68473 5.38383 3.95829C3.78902 5.23184 2.67442 7.00964 2.22291 9C2.677 10.9883 3.79258 12.7635 5.38705 14.0352C6.98152 15.3068 8.96044 15.9996 10.9999 16ZM10.9999 13.5C10.1099 13.5 9.23986 13.2361 8.49984 12.7416C7.75982 12.2471 7.18304 11.5443 6.84245 10.7221C6.50186 9.89981 6.41274 8.99501 6.58637 8.12209C6.76001 7.24918 7.18859 6.44736 7.81793 5.81802C8.44726 5.18868 9.24909 4.7601 10.122 4.58647C10.9949 4.41283 11.8997 4.50195 12.722 4.84254C13.5443 5.18314 14.2471 5.75991 14.7415 6.49993C15.236 7.23996 15.4999 8.10998 15.4999 9C15.4999 10.1935 15.0258 11.3381 14.1819 12.182C13.338 13.0259 12.1934 13.5 10.9999 13.5ZM10.9999 11.5C11.4944 11.5 11.9777 11.3534 12.3888 11.0787C12.8 10.804 13.1204 10.4135 13.3096 9.95671C13.4988 9.49989 13.5483 8.99723 13.4519 8.51227C13.3554 8.02732 13.1173 7.58186 12.7677 7.23223C12.418 6.8826 11.9726 6.6445 11.4876 6.54804C11.0027 6.45157 10.5 6.50108 10.0432 6.6903C9.58638 6.87952 9.19594 7.19995 8.92123 7.61107C8.64653 8.0222 8.49991 8.50555 8.49991 9C8.49991 9.66304 8.7633 10.2989 9.23214 10.7678C9.70098 11.2366 10.3369 11.5 10.9999 11.5Z" fill="#BCBCBC"/>
</svg>
