<svg width="20" height="19" viewBox="0 0 20 19" fill="none" xmlns="http://www.w3.org/2000/svg">
<path d="M11.2419 10.172L3.39295 18.021L1.97895 16.607L3.39295 15.192L0.918945 12.718L2.33295 11.303L4.80795 13.778L6.22595 12.364L4.10095 10.243L5.51495 8.82697L7.63595 10.95L9.82594 8.75797C9.14098 7.72255 8.86494 6.46966 9.05135 5.24225C9.23776 4.01485 9.87333 2.9004 10.8348 2.11503C11.7963 1.32966 13.0152 0.929331 14.2551 0.991676C15.495 1.05402 16.6676 1.5746 17.5455 2.45246C18.4233 3.33032 18.9439 4.5029 19.0062 5.74281C19.0686 6.98272 18.6683 8.20161 17.8829 9.1631C17.0975 10.1246 15.9831 10.7602 14.7557 10.9466C13.5283 11.133 12.2754 10.8569 11.2399 10.172H11.2419ZM11.8789 3.87897C11.4592 4.29844 11.1732 4.83298 11.0573 5.41499C10.9413 5.997 11.0006 6.60032 11.2276 7.14863C11.4546 7.69694 11.8391 8.16562 12.3325 8.49536C12.8259 8.82511 13.406 9.00111 13.9994 9.00111C14.5929 9.00111 15.173 8.82511 15.6664 8.49536C16.1598 8.16562 16.5443 7.69694 16.7713 7.14863C16.9983 6.60032 17.0576 5.997 16.9416 5.41499C16.8257 4.83298 16.5397 4.29844 16.1199 3.87897C15.5574 3.31687 14.7947 3.00111 13.9994 3.00111C13.2042 3.00111 12.4415 3.31687 11.8789 3.87897Z" fill="#BCBCBC"/>
</svg>
