<svg width="25" height="25" viewBox="0 0 25 25" fill="none" xmlns="http://www.w3.org/2000/svg">
<path fill-rule="evenodd" clip-rule="evenodd" d="M12.5 8.75C10.4289 8.75 8.75 10.4289 8.75 12.5C8.75 14.5711 10.4289 16.25 12.5 16.25C14.5711 16.25 16.25 14.5711 16.25 12.5C16.25 10.4289 14.5711 8.75 12.5 8.75ZM10.25 12.5C10.25 11.2574 11.2574 10.25 12.5 10.25C13.7426 10.25 14.75 11.2574 14.75 12.5C14.75 13.7426 13.7426 14.75 12.5 14.75C11.2574 14.75 10.25 13.7426 10.25 12.5Z" fill="#020659"/>
<path fill-rule="evenodd" clip-rule="evenodd" d="M12.4747 1.75C12.0303 1.74999 11.6592 1.74999 11.3546 1.77077C11.0375 1.79241 10.738 1.83905 10.4476 1.95933C9.77379 2.23844 9.23843 2.77379 8.95932 3.44762C8.81402 3.79842 8.77467 4.16812 8.75964 4.56996C8.74756 4.89299 8.58454 5.16251 8.34395 5.30141C8.10337 5.44031 7.78845 5.44673 7.50266 5.29568C7.14714 5.10777 6.80729 4.95699 6.43083 4.90743C5.70773 4.81223 4.97642 5.00819 4.39779 5.45219C4.14843 5.64353 3.95827 5.8796 3.78099 6.1434C3.61068 6.39681 3.42517 6.71815 3.20294 7.10307L3.17769 7.14681C2.95545 7.53172 2.76993 7.85304 2.63562 8.12723C2.49581 8.41267 2.38644 8.69539 2.34541 9.00701C2.25021 9.73012 2.44617 10.4614 2.89016 11.0401C3.12128 11.3412 3.42173 11.5602 3.76217 11.7741C4.03595 11.9461 4.18788 12.2221 4.18786 12.5C4.18785 12.7778 4.03592 13.0538 3.76217 13.2258C3.42169 13.4397 3.12121 13.6587 2.89007 13.9599C2.44607 14.5385 2.25012 15.2698 2.34531 15.9929C2.38634 16.3045 2.49571 16.5873 2.63552 16.8727C2.76983 17.1469 2.95535 17.4682 3.17758 17.8531L3.20284 17.8969C3.42507 18.2818 3.61058 18.6031 3.78089 18.8565C3.95817 19.1203 4.14833 19.3564 4.39769 19.5477C4.97632 19.9917 5.70763 20.1877 6.43073 20.0925C6.80717 20.0429 7.147 19.8922 7.5025 19.7043C7.78833 19.5532 8.10329 19.5596 8.3439 19.6986C8.58452 19.8375 8.74756 20.107 8.75964 20.4301C8.77467 20.8319 8.81403 21.2016 8.95932 21.5524C9.23843 22.2262 9.77379 22.7616 10.4476 23.0407C10.738 23.161 11.0375 23.2076 11.3546 23.2292C11.6592 23.25 12.0303 23.25 12.4747 23.25H12.5252C12.9697 23.25 13.3407 23.25 13.6454 23.2292C13.9625 23.2076 14.262 23.161 14.5524 23.0407C15.2262 22.7616 15.7616 22.2262 16.0407 21.5524C16.186 21.2016 16.2253 20.8319 16.2403 20.43C16.2524 20.107 16.4154 19.8375 16.656 19.6985C16.8966 19.5596 17.2116 19.5532 17.4974 19.7042C17.8529 19.8921 18.1927 20.0429 18.5692 20.0924C19.2923 20.1876 20.0236 19.9917 20.6022 19.5477C20.8516 19.3563 21.0417 19.1203 21.219 18.8565C21.3893 18.6031 21.5748 18.2818 21.797 17.8969L21.8223 17.8531C22.0445 17.4682 22.2301 17.1468 22.3644 16.8726C22.5042 16.5872 22.6135 16.3045 22.6546 15.9929C22.7498 15.2697 22.5538 14.5384 22.1098 13.9598C21.8787 13.6586 21.5782 13.4397 21.2378 13.2258C20.964 13.0538 20.8121 12.7778 20.8121 12.4999C20.8121 12.2221 20.964 11.9462 21.2377 11.7742C21.5783 11.5603 21.8788 11.3414 22.1099 11.0401C22.5539 10.4615 22.7499 9.73019 22.6547 9.00708C22.6136 8.69546 22.5043 8.41274 22.3645 8.1273C22.2302 7.85313 22.0447 7.53183 21.8224 7.14695L21.7972 7.10318C21.5749 6.71825 21.3894 6.39688 21.2191 6.14347C21.0418 5.87967 20.8517 5.6436 20.6023 5.45225C20.0237 5.00826 19.2924 4.8123 18.5692 4.9075C18.1928 4.95706 17.853 5.10782 17.4975 5.29572C17.2117 5.44679 16.8967 5.44036 16.6561 5.30144C16.4155 5.16253 16.2524 4.89297 16.2403 4.56991C16.2253 4.16808 16.186 3.7984 16.0407 3.44762C15.7616 2.77379 15.2262 2.23844 14.5524 1.95933C14.262 1.83905 13.9625 1.79241 13.6454 1.77077C13.3407 1.74999 12.9697 1.74999 12.5252 1.75H12.4747ZM11.0216 3.34515C11.0988 3.31319 11.216 3.28372 11.4567 3.26729C11.7042 3.25041 12.0238 3.25 12.5 3.25C12.9762 3.25 13.2958 3.25041 13.5432 3.26729C13.784 3.28372 13.9012 3.31319 13.9783 3.34515C14.2846 3.47202 14.528 3.71536 14.6548 4.02165C14.6949 4.11826 14.728 4.26887 14.7414 4.62597C14.771 5.41835 15.18 6.18129 15.9061 6.60048C16.6321 7.01968 17.4974 6.9924 18.1984 6.62188C18.5143 6.4549 18.6614 6.40832 18.765 6.39467C19.0937 6.3514 19.4261 6.44047 19.6891 6.64228C19.7554 6.69312 19.8395 6.77989 19.9741 6.98016C20.1125 7.18603 20.2726 7.4626 20.5107 7.875C20.7488 8.28741 20.9083 8.56438 21.0174 8.78713C21.1235 9.00382 21.1566 9.12007 21.1675 9.20287C21.2108 9.53155 21.1217 9.86397 20.9199 10.127C20.8562 10.21 20.7424 10.314 20.4397 10.5041C19.7684 10.926 19.3122 11.6616 19.3121 12.4999C19.3121 13.3383 19.7683 14.074 20.4397 14.4959C20.7423 14.686 20.8561 14.79 20.9198 14.873C21.1216 15.136 21.2107 15.4684 21.1674 15.7971C21.1565 15.8799 21.1234 15.9961 21.0173 16.2128C20.9082 16.4355 20.7487 16.7125 20.5106 17.1249C20.2725 17.5373 20.1124 17.8139 19.974 18.0198C19.8394 18.22 19.7553 18.3068 19.689 18.3576C19.426 18.5595 19.0936 18.6485 18.7649 18.6053C18.6613 18.5916 18.5142 18.545 18.1983 18.3781C17.4973 18.0075 16.632 17.9803 15.9059 18.3995C15.18 18.8187 14.771 19.5816 14.7414 20.374C14.728 20.7311 14.6949 20.8817 14.6548 20.9784C14.528 21.2846 14.2846 21.528 13.9783 21.6549C13.9012 21.6868 13.784 21.7163 13.5432 21.7327C13.2958 21.7496 12.9762 21.75 12.5 21.75C12.0238 21.75 11.7042 21.7496 11.4567 21.7327C11.216 21.7163 11.0988 21.6868 11.0216 21.6549C10.7154 21.528 10.472 21.2846 10.3451 20.9784C10.3051 20.8817 10.2719 20.7311 10.2586 20.374C10.229 19.5817 9.81997 18.8187 9.0939 18.3995C8.36784 17.9803 7.50262 18.0076 6.80158 18.3781C6.48565 18.5451 6.33863 18.5917 6.23495 18.6053C5.90626 18.6486 5.57385 18.5595 5.31084 18.3577C5.24458 18.3069 5.16045 18.2201 5.02586 18.0198C4.88751 17.814 4.72736 17.5374 4.48926 17.125C4.25115 16.7126 4.09171 16.4356 3.9826 16.2129C3.87646 15.9962 3.84338 15.8799 3.83248 15.7971C3.78921 15.4684 3.87828 15.136 4.0801 14.873C4.14376 14.7901 4.25761 14.686 4.5602 14.4959C5.23158 14.0741 5.68782 13.3384 5.68786 12.5001C5.68791 11.6616 5.23165 10.9259 4.56021 10.504C4.25769 10.3139 4.14385 10.2099 4.08019 10.1269C3.87838 9.8639 3.78931 9.53149 3.83258 9.2028C3.84348 9.12001 3.87656 9.00375 3.9827 8.78707C4.09181 8.56431 4.25125 8.28734 4.48935 7.87493C4.72746 7.46253 4.8876 7.18596 5.02596 6.98009C5.16055 6.77983 5.24468 6.69305 5.31093 6.64222C5.57395 6.4404 5.90636 6.35133 6.23504 6.3946C6.33873 6.40825 6.48576 6.45483 6.80173 6.62184C7.50273 6.99235 8.36791 7.01962 9.09394 6.60045C9.81998 6.18128 10.229 5.41837 10.2586 4.62602C10.2719 4.26889 10.3051 4.11827 10.3451 4.02165C10.472 3.71536 10.7154 3.47202 11.0216 3.34515Z" fill="#020659"/>
</svg>
