<svg width="25" height="24" viewBox="0 0 25 24" fill="none" xmlns="http://www.w3.org/2000/svg">
<path fill-rule="evenodd" clip-rule="evenodd" d="M12.25 1.25C12.6642 1.25 13 1.58579 13 2V4C13 4.41421 12.6642 4.75 12.25 4.75C11.8358 4.75 11.5 4.41421 11.5 4V2C11.5 1.58579 11.8358 1.25 12.25 1.25ZM18.7804 5.46955C19.0733 5.76245 19.0733 6.23732 18.7804 6.53021L18.4372 6.87348C18.1443 7.16637 17.6694 7.16637 17.3765 6.87348C17.0836 6.58058 17.0836 6.10571 17.3765 5.81282L17.7198 5.46955C18.0127 5.17666 18.4876 5.17666 18.7804 5.46955ZM5.71967 5.46967C6.01256 5.17678 6.48744 5.17678 6.78033 5.46967L7.12359 5.81293C7.41648 6.10582 7.41648 6.5807 7.12359 6.87359C6.8307 7.16648 6.35582 7.16648 6.06293 6.87359L5.71967 6.53033C5.42678 6.23744 5.42678 5.76256 5.71967 5.46967ZM12.1937 7.88204C12.0175 8.11216 11.8106 8.47938 11.4817 9.06936L11.3178 9.36329C11.3057 9.38498 11.2935 9.40714 11.2811 9.42967C11.1418 9.68183 10.9767 9.98073 10.706 10.1863C10.4307 10.3952 10.098 10.469 9.82478 10.5296C9.80051 10.535 9.7767 10.5403 9.75345 10.5455L9.43528 10.6175C8.79488 10.7624 8.40208 10.8535 8.14289 10.9556C8.08731 10.9775 8.04792 10.9961 8.02056 11.0107C8.03524 11.0432 8.05965 11.0898 8.09982 11.1536C8.25484 11.3999 8.52473 11.7185 8.96005 12.2275L9.17696 12.4812C9.19268 12.4995 9.20872 12.5182 9.22499 12.5371C9.41347 12.7559 9.63284 13.0105 9.7341 13.3361C9.83443 13.6588 9.80079 13.9938 9.77144 14.2861C9.76889 14.3115 9.76638 14.3365 9.764 14.3611L9.7312 14.6995C9.66549 15.3777 9.62598 15.8044 9.63923 16.1018C9.64178 16.1592 9.64608 16.2034 9.65075 16.237C9.6746 16.2318 9.70345 16.2246 9.73794 16.2147C10.0051 16.1382 10.3745 15.9704 10.9742 15.6943L11.2721 15.5572C11.2941 15.547 11.3166 15.5366 11.3395 15.5259C11.5928 15.4079 11.905 15.2624 12.25 15.2624C12.595 15.2624 12.9072 15.4079 13.1605 15.5259C13.1834 15.5366 13.2059 15.547 13.2279 15.5572L13.5258 15.6943C14.1255 15.9704 14.4949 16.1382 14.7621 16.2147C14.7966 16.2246 14.8254 16.2318 14.8493 16.237C14.8539 16.2034 14.8582 16.1592 14.8608 16.1018C14.874 15.8044 14.8345 15.3777 14.7688 14.6995L14.736 14.3611C14.7336 14.3365 14.7311 14.3115 14.7286 14.2861C14.6992 13.9938 14.6656 13.6588 14.7659 13.3361C14.8672 13.0105 15.0865 12.7559 15.275 12.5371C15.2913 12.5182 15.3073 12.4995 15.323 12.4812L15.54 12.2275C15.9753 11.7185 16.2452 11.3999 16.4002 11.1536C16.4404 11.0898 16.4648 11.0432 16.4794 11.0107C16.4521 10.9961 16.4127 10.9775 16.3571 10.9556C16.0979 10.8535 15.7051 10.7624 15.0647 10.6175L14.7465 10.5455C14.7233 10.5403 14.6995 10.535 14.6752 10.5296C14.402 10.469 14.0693 10.3952 13.794 10.1863C13.5233 9.98072 13.3582 9.68182 13.2189 9.42966C13.2065 9.40713 13.1943 9.38498 13.1822 9.36329L13.0183 9.06936C12.6894 8.47938 12.4825 8.11216 12.3063 7.88204C12.285 7.85429 12.2663 7.83131 12.25 7.81236C12.2337 7.83131 12.215 7.85429 12.1937 7.88204ZM16.5354 11.0478C16.535 11.0479 16.5321 11.0456 16.528 11.0408C16.5338 11.0453 16.5359 11.0477 16.5354 11.0478ZM16.4992 10.958C16.4994 10.9521 16.5002 10.9488 16.5005 10.9486C16.5009 10.9484 16.5008 10.9513 16.4992 10.958ZM14.8274 16.3308C14.8272 16.3306 14.8282 16.3281 14.8305 16.3241C14.8287 16.329 14.8275 16.331 14.8274 16.3308ZM14.9391 16.2502C14.9443 16.2494 14.9474 16.2494 14.9476 16.2497C14.9478 16.2499 14.9452 16.2503 14.9391 16.2502ZM9.55242 16.2497C9.55263 16.2494 9.55567 16.2494 9.56091 16.2502C9.55482 16.2503 9.55221 16.2499 9.55242 16.2497ZM9.66951 16.3241C9.67184 16.3281 9.67276 16.3306 9.67264 16.3308C9.67251 16.331 9.67135 16.329 9.66951 16.3241ZM7.99947 10.9486C7.99983 10.9488 8.00065 10.9521 8.00084 10.958C7.9992 10.9513 7.9991 10.9484 7.99947 10.9486ZM7.97196 11.0408C7.96793 11.0456 7.96503 11.0479 7.96458 11.0478C7.96414 11.0477 7.96616 11.0453 7.97196 11.0408ZM11.0028 6.97005C11.262 6.63162 11.6536 6.25 12.25 6.25C12.8464 6.25 13.238 6.63162 13.4972 6.97005C13.7483 7.29792 14.0081 7.7641 14.3014 8.29035L14.4924 8.63294C14.5879 8.80436 14.6393 8.89541 14.6818 8.95932C14.6902 8.97204 14.6969 8.98138 14.7018 8.98805C14.7081 8.99032 14.7163 8.99314 14.7269 8.99647C14.7953 9.01804 14.8911 9.04032 15.0776 9.08251L15.4512 9.16704C16.0183 9.2953 16.5271 9.41035 16.9071 9.5601C17.3135 9.72027 17.7639 9.99316 17.9375 10.5512C18.1084 11.101 17.9023 11.5831 17.6696 11.9527C17.4487 12.3036 17.1042 12.7064 16.7157 13.1606L16.463 13.4561C16.3365 13.604 16.2699 13.6828 16.225 13.7445C16.2116 13.7629 16.2037 13.7752 16.1993 13.7825C16.1986 13.7916 16.198 13.8079 16.1985 13.8339C16.2001 13.9131 16.2099 14.0195 16.229 14.2164L16.267 14.6089C16.326 15.2165 16.3779 15.7515 16.3593 16.1685C16.3401 16.5991 16.2397 17.1254 15.7759 17.4775C15.2999 17.8388 14.7629 17.7753 14.3489 17.6567C13.9573 17.5445 13.4814 17.3253 12.9506 17.0808L12.8985 17.0568L12.6006 16.9197C12.426 16.8393 12.3357 16.7983 12.2679 16.7737C12.261 16.7712 12.2551 16.7691 12.25 16.7674C12.2449 16.7691 12.239 16.7712 12.2321 16.7737C12.1643 16.7983 12.074 16.8393 11.8994 16.9197L11.5494 17.0808C11.0186 17.3253 10.5427 17.5445 10.1511 17.6567C9.73708 17.7753 9.2001 17.8388 8.72409 17.4775C8.26032 17.1254 8.1599 16.5991 8.14071 16.1685C8.12214 15.7515 8.17402 15.2165 8.23296 14.6089L8.27099 14.2164C8.29007 14.0195 8.29987 13.9131 8.30147 13.8339C8.30199 13.8079 8.30135 13.7916 8.30069 13.7825C8.29629 13.7752 8.28836 13.7629 8.27495 13.7445C8.23014 13.6828 8.16352 13.604 8.03696 13.4561L7.78434 13.1607C7.39579 12.7064 7.05127 12.3036 6.8304 11.9527C6.59769 11.5831 6.39156 11.101 6.56254 10.5512C6.73606 9.99316 7.18649 9.72027 7.59293 9.5601C7.9729 9.41035 8.48166 9.2953 9.04884 9.16704C9.06725 9.16288 9.08573 9.1587 9.10426 9.1545L9.42243 9.08251C9.6089 9.04032 9.70469 9.01804 9.77309 8.99647C9.78366 8.99314 9.7919 8.99032 9.79816 8.98804C9.80312 8.98138 9.80976 8.97204 9.81822 8.95932C9.86072 8.89541 9.91208 8.80436 10.0076 8.63294L10.1715 8.33901C10.1806 8.32274 10.1896 8.30652 10.1986 8.29035C10.4919 7.7641 10.7517 7.29793 11.0028 6.97005ZM8.29994 13.7746C8.2997 13.7734 8.29962 13.7728 8.29963 13.7727L8.29994 13.7746ZM14.7131 9.00218C14.7131 9.0022 14.7136 9.00268 14.7131 9.00218V9.00218ZM1.5 12C1.5 11.5858 1.83579 11.25 2.25 11.25H4.25C4.66421 11.25 5 11.5858 5 12C5 12.4142 4.66421 12.75 4.25 12.75H2.25C1.83579 12.75 1.5 12.4142 1.5 12ZM19.5 12C19.5 11.5858 19.8358 11.25 20.25 11.25H22.25C22.6642 11.25 23 11.5858 23 12C23 12.4142 22.6642 12.75 22.25 12.75H20.25C19.8358 12.75 19.5 12.4142 19.5 12ZM7.12348 17.1265C7.41637 17.4194 7.41637 17.8943 7.12348 18.1872L6.78043 18.5302C6.48754 18.8231 6.01266 18.8231 5.71977 18.5302C5.42688 18.2373 5.42688 17.7625 5.71977 17.4696L6.06282 17.1265C6.35571 16.8336 6.83058 16.8336 7.12348 17.1265ZM17.3765 17.1267C17.6694 16.8339 18.1443 16.8339 18.4372 17.1267L18.7802 17.4698C19.0731 17.7627 19.0731 18.2376 18.7802 18.5305C18.4873 18.8233 18.0124 18.8233 17.7195 18.5305L17.3765 18.1874C17.0836 17.8945 17.0836 17.4196 17.3765 17.1267ZM12.25 19.25C12.6642 19.25 13 19.5858 13 20V22C13 22.4142 12.6642 22.75 12.25 22.75C11.8358 22.75 11.5 22.4142 11.5 22V20C11.5 19.5858 11.8358 19.25 12.25 19.25Z" fill="#020659"/>
</svg>
