<svg width="20" height="16" viewBox="0 0 20 16" fill="none" xmlns="http://www.w3.org/2000/svg">
<path d="M16.73 1.4101L15.45 2.4101L9.99995 6.4601L4.54995 2.3701L3.26995 1.3701C2.96841 1.12064 2.6003 0.965136 2.21124 0.922846C1.82218 0.880556 1.42926 0.953339 1.08116 1.13218C0.73306 1.31102 0.445078 1.58806 0.252892 1.92897C0.0607053 2.26988 -0.0272399 2.65969 -4.84232e-05 3.0501V14.6401C-4.84232e-05 15.0008 0.143237 15.3467 0.398286 15.6018C0.653336 15.8568 0.999257 16.0001 1.35995 16.0001H4.54995V8.2801L9.99995 12.3701L15.45 8.2801V16.0001H18.64C19.0006 16.0001 19.3466 15.8568 19.6016 15.6018C19.8567 15.3467 20 15.0008 20 14.6401V3.0501C20.0187 2.66306 19.9247 2.2789 19.7292 1.94432C19.5337 1.60974 19.2453 1.33914 18.8989 1.16543C18.5525 0.99171 18.1632 0.922355 17.7781 0.965791C17.3931 1.00923 17.0289 1.16358 16.73 1.4101Z" fill="#BCBCBC"/>
</svg>
