<svg width="18" height="18" viewBox="0 0 18 18" fill="none" xmlns="http://www.w3.org/2000/svg">
<path fill-rule="evenodd" clip-rule="evenodd" d="M0.041626 8.99996C0.041626 4.05241 4.05241 0.041626 8.99996 0.041626C9.34514 0.041626 9.62496 0.321448 9.62496 0.666626C9.62496 1.0118 9.34514 1.29163 8.99996 1.29163C4.74276 1.29163 1.29163 4.74276 1.29163 8.99996C1.29163 13.2572 4.74276 16.7083 8.99996 16.7083C13.2572 16.7083 16.7083 13.2572 16.7083 8.99996C16.7083 8.65478 16.9881 8.37496 17.3333 8.37496C17.6785 8.37496 17.9583 8.65478 17.9583 8.99996C17.9583 13.9475 13.9475 17.9583 8.99996 17.9583C4.05241 17.9583 0.041626 13.9475 0.041626 8.99996ZM12.9754 0.896555C14.1153 -0.24335 15.9635 -0.24335 17.1034 0.896555C18.2433 2.03646 18.2433 3.88461 17.1034 5.02452L11.5633 10.5646C11.2539 10.874 11.0601 11.0679 10.8438 11.2366C10.589 11.4353 10.3134 11.6056 10.0217 11.7446C9.77414 11.8626 9.51408 11.9493 9.09895 12.0876L6.67851 12.8945C6.23164 13.0434 5.73896 12.9271 5.40589 12.594C5.07281 12.261 4.9565 11.7683 5.10546 11.3214L5.91227 8.90098C6.05062 8.48584 6.13728 8.22579 6.25529 7.97817C6.39428 7.68652 6.56463 7.41089 6.76333 7.15614C6.93203 6.93985 7.12588 6.74603 7.43533 6.43662L12.9754 0.896555ZM16.2195 1.78044C15.5677 1.12869 14.511 1.12869 13.8593 1.78044L13.5454 2.09429C13.5644 2.17417 13.5908 2.26935 13.6277 2.37551C13.7471 2.71973 13.9731 3.17305 14.4 3.59995C14.8269 4.02685 15.2802 4.25285 15.6244 4.37227C15.7306 4.4091 15.8257 4.43556 15.9056 4.45448L16.2195 4.14063C16.8712 3.48888 16.8712 2.43219 16.2195 1.78044ZM14.9209 5.4392C14.4909 5.25429 13.9901 4.95784 13.5161 4.48384C13.0421 4.00983 12.7456 3.50898 12.5607 3.07901L8.34788 7.29184C8.00079 7.63894 7.86466 7.77659 7.74897 7.92492C7.60611 8.10808 7.48363 8.30625 7.38369 8.51594C7.30276 8.68576 7.24052 8.86907 7.0853 9.33475L6.72538 10.4145L7.58543 11.2745L8.66517 10.9146C9.13085 10.7594 9.31416 10.6972 9.48398 10.6162C9.69366 10.5163 9.89184 10.3938 10.075 10.2509C10.2233 10.1353 10.361 9.99913 10.7081 9.65204L14.9209 5.4392Z" fill="#2C2F73"/>
</svg>
