<svg width="17" height="18" viewBox="0 0 17 18" fill="none" xmlns="http://www.w3.org/2000/svg">
<path fill-rule="evenodd" clip-rule="evenodd" d="M11.7635 2.18481L12.0417 2.53617C12.1819 2.71326 12.2609 2.81221 12.3254 2.88167C12.3601 2.91906 12.3784 2.93421 12.3851 2.93913C12.3927 2.94165 12.4132 2.94724 12.4567 2.95359C12.5458 2.96659 12.6662 2.97469 12.8865 2.98844L13.3246 3.01579C14.0073 3.05835 14.6052 3.09562 15.0601 3.19474C15.5419 3.29971 16.0661 3.51585 16.3444 4.07513C16.6193 4.6276 16.4852 5.1772 16.29 5.63138C16.1035 6.06534 15.7848 6.58314 15.4176 7.17968L15.3877 7.22823L15.1844 7.55845C15.0668 7.74956 15.0016 7.85659 14.9586 7.94062C14.9395 7.97803 14.9308 7.99972 14.9267 8.01134C14.9232 8.02126 14.9229 8.02439 14.9229 8.02456C14.9229 8.02477 14.9222 8.02846 14.9227 8.0402C14.9234 8.05373 14.9257 8.07839 14.9334 8.12128C14.9507 8.2169 14.9828 8.34171 15.0403 8.56184L15.14 8.94299L15.1543 8.99757C15.3346 9.68747 15.4904 10.2831 15.5443 10.7554C15.6 11.2422 15.5761 11.8172 15.1452 12.2656C14.7051 12.7236 14.1275 12.7534 13.6433 12.6957C13.1819 12.6407 12.6024 12.4801 11.9404 12.2965L11.5154 12.1787C11.3018 12.1194 11.1845 12.0875 11.0957 12.0706C11.0588 12.0636 11.0383 12.0616 11.0287 12.0611C11.0198 12.0645 11.0009 12.0729 10.968 12.0911C10.8889 12.1349 10.7874 12.2019 10.6029 12.3249L10.2358 12.5697C9.66411 12.951 9.16372 13.2848 8.74259 13.4812C8.30071 13.6873 7.74254 13.8396 7.18134 13.5419C6.82307 13.3518 6.61256 13.0565 6.48201 12.741C4.20903 13.7002 2.35129 15.3478 1.70858 17.241C1.59776 17.5674 1.27868 17.7763 0.935176 17.7472C0.591669 17.7182 0.312204 17.4587 0.257786 17.1183C-0.682787 11.2345 1.07415 7.68585 3.5981 5.75178C3.77326 5.35595 4.10512 5.09139 4.43376 4.89784C4.83503 4.66151 5.39138 4.43925 6.02672 4.18544C6.04487 4.17819 6.06308 4.17091 6.08136 4.16361L6.43436 4.02255C6.63933 3.94065 6.75123 3.8953 6.83184 3.8551C6.87142 3.83535 6.88922 3.82358 6.8956 3.81883C6.90038 3.81213 6.91311 3.79201 6.93457 3.74533C6.97419 3.65914 7.01843 3.54042 7.09642 3.32837L7.23122 2.96185C7.23788 2.94373 7.24452 2.92567 7.25114 2.90767C7.49454 2.24573 7.70566 1.67159 7.9304 1.25796C8.16198 0.831743 8.5173 0.36806 9.14284 0.267801C9.76854 0.167518 10.2509 0.49712 10.6039 0.829776C10.9464 1.15254 11.326 1.63205 11.7635 2.18481ZM3.90982 7.4589C2.48667 8.82971 1.39016 11.049 1.50808 14.566C2.6756 13.0988 4.38232 11.9507 6.20653 11.234C6.18719 10.9865 6.17088 10.7206 6.15363 10.4395L6.12601 9.98998C6.11206 9.76286 6.10365 9.63425 6.09026 9.538C6.08425 9.49482 6.07876 9.47068 6.07515 9.45764C6.07202 9.44633 6.07022 9.44306 6.07014 9.44289C6.07 9.44259 6.06862 9.43962 6.06247 9.43163C6.05501 9.4219 6.03996 9.40406 6.01015 9.37451C5.94318 9.30813 5.84787 9.22686 5.67654 9.08206L5.33696 8.79503C4.80217 8.34309 4.33791 7.95074 4.02542 7.5967C3.98628 7.55235 3.94754 7.50643 3.90982 7.4589ZM7.78284 11.8376C7.79975 11.7239 7.79069 11.6045 7.75143 11.4881C7.74485 11.4686 7.73754 11.4495 7.72955 11.4309C7.69982 11.1345 7.67636 10.7634 7.64735 10.2913L7.62319 9.898C7.62148 9.87012 7.61983 9.84207 7.61818 9.81388C7.59797 9.46906 7.57653 9.10317 7.41307 8.77466C7.24836 8.44365 6.9685 8.2085 6.70811 7.98972C6.68686 7.97187 6.66575 7.95413 6.64483 7.93645L6.34881 7.68625C5.75772 7.18665 5.38061 6.86535 5.15003 6.6041C5.04018 6.47965 4.99635 6.40399 4.97978 6.3653C4.97779 6.36065 4.97632 6.35683 4.97525 6.3538C4.97575 6.3532 4.97627 6.35258 4.97683 6.35192C4.99912 6.32578 5.0575 6.27131 5.19498 6.19033C5.48505 6.0195 5.93158 5.83878 6.63795 5.55652L6.99095 5.41547C7.01622 5.40537 7.04181 5.39524 7.06764 5.38502C7.37556 5.26318 7.71858 5.12745 7.97699 4.85856C8.23206 4.59315 8.35876 4.24527 8.47501 3.9261C8.4848 3.89922 8.49451 3.87254 8.50422 3.84614L8.63902 3.47962C8.90822 2.7477 9.08253 2.27939 9.24841 1.97408C9.30966 1.86136 9.35471 1.79949 9.38304 1.76693C9.42005 1.78902 9.48202 1.83366 9.57513 1.92141C9.82785 2.15957 10.1394 2.54994 10.6233 3.16118L10.8656 3.46726C10.8831 3.48931 10.9007 3.51163 10.9183 3.53412C11.1282 3.80097 11.3572 4.09202 11.6824 4.26454C12.0119 4.43931 12.3802 4.46106 12.7107 4.48057C12.7384 4.48221 12.7659 4.48383 12.7931 4.48553L13.1724 4.50921C13.9315 4.5566 14.412 4.58872 14.7408 4.66036C14.8966 4.69431 14.9689 4.7278 14.9982 4.74559C14.9988 4.74596 14.9994 4.74632 14.9999 4.74667C14.9998 4.74987 14.9996 4.75391 14.9992 4.75888C14.9955 4.8009 14.9774 4.88654 14.9118 5.03916C14.7742 5.35949 14.516 5.78267 14.1102 6.44202L13.907 6.77224C13.8926 6.79557 13.8781 6.81902 13.8635 6.84262C13.6843 7.13187 13.4918 7.44259 13.4385 7.80839C13.3857 8.17151 13.4794 8.52581 13.5676 8.85973C13.5749 8.88703 13.582 8.91419 13.5891 8.94121L13.6888 9.32237C13.8875 10.0826 14.0137 10.5729 14.054 10.9256C14.0725 11.0869 14.0668 11.1729 14.0596 11.2144C14.0213 11.2193 13.9484 11.2215 13.8207 11.2062C13.4874 11.1665 13.0203 11.0393 12.284 10.8352L11.9161 10.7332C11.8894 10.7258 11.8624 10.7182 11.8352 10.7105C11.5169 10.6211 11.1587 10.5204 10.7912 10.5793C10.4239 10.6382 10.115 10.8457 9.84049 11.0302C9.81699 11.046 9.79374 11.0616 9.77072 11.077L9.45297 11.2888C8.81707 11.7129 8.41298 11.9798 8.10858 12.1217C7.99244 12.1759 7.92255 12.1967 7.88457 12.2041C7.86475 12.1668 7.83273 12.0869 7.80011 11.9286C7.79409 11.8994 7.78834 11.8691 7.78284 11.8376ZM7.84683 12.2068C7.8473 12.2061 7.85228 12.2058 7.86039 12.2076C7.85042 12.2083 7.84637 12.2074 7.84683 12.2068ZM7.89735 12.2252C7.90249 12.2293 7.90473 12.2324 7.90456 12.2329C7.90439 12.2335 7.90182 12.2314 7.89735 12.2252ZM14.0496 11.2477C14.0493 11.2472 14.0504 11.2436 14.0541 11.2381C14.0517 11.2454 14.0499 11.2482 14.0496 11.2477ZM14.0833 11.2102C14.0904 11.2059 14.0953 11.2047 14.0959 11.2052C14.0966 11.2057 14.093 11.2078 14.0833 11.2102ZM9.4187 1.73408C9.41871 1.73466 9.41555 1.73732 9.40916 1.74036C9.41549 1.73503 9.41868 1.73351 9.4187 1.73408ZM9.34993 1.74983C9.3429 1.74892 9.33905 1.74737 9.33889 1.74682C9.33872 1.74627 9.34224 1.74672 9.34993 1.74983Z" fill="white"/>
</svg>
