<svg width="23" height="19" viewBox="0 0 23 19" fill="none" xmlns="http://www.w3.org/2000/svg">
<path fill-rule="evenodd" clip-rule="evenodd" d="M9.44358 0.75H13.5564C15.3942 0.749984 16.8498 0.749972 17.989 0.903135C19.1614 1.06076 20.1104 1.39288 20.8588 2.14124C21.6071 2.88961 21.9392 3.83856 22.0969 5.01098C22.1873 5.68385 22.2244 6.4671 22.2395 7.37428C22.2464 7.41516 22.25 7.45716 22.25 7.5C22.25 7.53525 22.2476 7.56994 22.2429 7.6039C22.25 8.16962 22.25 8.78183 22.25 9.44359V9.55641C22.25 11.3942 22.25 12.8498 22.0969 13.989C21.9392 15.1614 21.6071 16.1104 20.8588 16.8588C20.1104 17.6071 19.1614 17.9392 17.989 18.0969C16.8498 18.25 15.3942 18.25 13.5564 18.25H9.44359C7.60583 18.25 6.15019 18.25 5.01098 18.0969C3.83856 17.9392 2.88961 17.6071 2.14124 16.8588C1.39288 16.1104 1.06076 15.1614 0.903135 13.989C0.749972 12.8498 0.749984 11.3942 0.75 9.55642V9.44358C0.749995 8.78182 0.749989 8.16961 0.757136 7.60388C0.752432 7.56993 0.750001 7.53525 0.750001 7.5C0.750001 7.45716 0.753592 7.41517 0.760489 7.37429C0.775642 6.46711 0.81267 5.68385 0.903135 5.01098C1.06076 3.83856 1.39288 2.88961 2.14124 2.14124C2.88961 1.39288 3.83856 1.06076 5.01098 0.903135C6.15019 0.749972 7.60582 0.749984 9.44358 0.75ZM2.25199 8.25C2.25009 8.63839 2.25 9.0541 2.25 9.5C2.25 11.4068 2.25159 12.7615 2.38976 13.7892C2.52502 14.7952 2.77869 15.3749 3.2019 15.7981C3.62511 16.2213 4.20476 16.475 5.21085 16.6102C6.23851 16.7484 7.59318 16.75 9.5 16.75H13.5C15.4068 16.75 16.7615 16.7484 17.7892 16.6102C18.7952 16.475 19.3749 16.2213 19.7981 15.7981C20.2213 15.3749 20.475 14.7952 20.6102 13.7892C20.7484 12.7615 20.75 11.4068 20.75 9.5C20.75 9.0541 20.7499 8.63839 20.748 8.25H2.25199ZM20.7239 6.75H2.27607C2.29564 6.16327 2.32987 5.65634 2.38976 5.21085C2.52502 4.20476 2.77869 3.62511 3.2019 3.2019C3.62511 2.77869 4.20476 2.52502 5.21085 2.38976C6.23851 2.25159 7.59318 2.25 9.5 2.25H13.5C15.4068 2.25 16.7615 2.25159 17.7892 2.38976C18.7952 2.52502 19.3749 2.77869 19.7981 3.2019C20.2213 3.62511 20.475 4.20476 20.6102 5.21085C20.6701 5.65634 20.7044 6.16327 20.7239 6.75ZM15.4553 9.75H15.5447C15.9776 9.74995 16.3744 9.7499 16.6972 9.7933C17.0527 9.84109 17.4284 9.95354 17.7374 10.2626C18.0465 10.5716 18.1589 10.9473 18.2067 11.3028C18.2501 11.6256 18.2501 12.0224 18.25 12.4553V12.5447C18.2501 12.9776 18.2501 13.3744 18.2067 13.6972C18.1589 14.0527 18.0465 14.4284 17.7374 14.7374C17.4284 15.0465 17.0527 15.1589 16.6972 15.2067C16.3744 15.2501 15.9776 15.2501 15.5447 15.25H15.4553C15.0224 15.2501 14.6256 15.2501 14.3028 15.2067C13.9473 15.1589 13.5716 15.0465 13.2626 14.7374C12.9535 14.4284 12.8411 14.0527 12.7933 13.6972C12.7499 13.3744 12.7499 12.9776 12.75 12.5447V12.4553C12.7499 12.0224 12.7499 11.6256 12.7933 11.3028C12.8411 10.9473 12.9535 10.5716 13.2626 10.2626C13.5716 9.95354 13.9473 9.84109 14.3028 9.7933C14.6256 9.7499 15.0224 9.74995 15.4553 9.75ZM14.3257 11.3219L14.3232 11.3232L14.3219 11.3257C14.3209 11.3276 14.3192 11.3309 14.3172 11.336C14.3082 11.3577 14.2929 11.4061 14.2799 11.5027C14.2516 11.7134 14.25 12.0074 14.25 12.5C14.25 12.9926 14.2516 13.2866 14.2799 13.4973C14.2929 13.5939 14.3082 13.6423 14.3172 13.664C14.318 13.6661 14.3195 13.6694 14.3195 13.6694C14.3205 13.6716 14.3219 13.6743 14.3219 13.6743L14.3232 13.6768L14.3257 13.6781C14.3276 13.6791 14.3309 13.6808 14.336 13.6828C14.3577 13.6918 14.4061 13.7071 14.5027 13.7201C14.7134 13.7484 15.0074 13.75 15.5 13.75C15.9926 13.75 16.2866 13.7484 16.4973 13.7201C16.5939 13.7071 16.6423 13.6918 16.664 13.6828C16.6691 13.6808 16.6724 13.6791 16.6743 13.6781L16.6768 13.6768L16.6781 13.6743C16.6791 13.6724 16.6808 13.6691 16.6828 13.664C16.6918 13.6423 16.7071 13.5939 16.7201 13.4973C16.7484 13.2866 16.75 12.9926 16.75 12.5C16.75 12.0074 16.7484 11.7134 16.7201 11.5027C16.7071 11.4061 16.6918 11.3577 16.6828 11.336C16.6816 11.333 16.6806 11.3307 16.6797 11.3288L16.6781 11.3257L16.6768 11.3232L16.6743 11.3219C16.6724 11.3209 16.6691 11.3192 16.664 11.3172C16.6423 11.3082 16.5939 11.2929 16.4973 11.2799C16.2866 11.2516 15.9926 11.25 15.5 11.25C15.0074 11.25 14.7134 11.2516 14.5027 11.2799C14.4061 11.2929 14.3577 11.3082 14.336 11.3172C14.3309 11.3192 14.3276 11.3209 14.3257 11.3219ZM4.75 11C4.75 10.5858 5.08579 10.25 5.5 10.25H7.5C7.91421 10.25 8.25 10.5858 8.25 11C8.25 11.4142 7.91421 11.75 7.5 11.75H5.5C5.08579 11.75 4.75 11.4142 4.75 11ZM4.75 14C4.75 13.5858 5.08579 13.25 5.5 13.25H9.5C9.91421 13.25 10.25 13.5858 10.25 14C10.25 14.4142 9.91421 14.75 9.5 14.75H5.5C5.08579 14.75 4.75 14.4142 4.75 14Z" fill="#2C2F73"/>
</svg>
